<?xml version="1.0" encoding="UTF-8" standalone="no"?>
<!DOCTYPE svg PUBLIC "-//W3C//DTD SVG 1.1//EN"
 "http://www.w3.org/Graphics/SVG/1.1/DTD/svg11.dtd">
<!-- Generated by graphviz version 2.38.0 (20140413.2041)
 -->
<!-- Title: G Pages: 1 -->
<svg width="2797pt" height="822pt"
 viewBox="0.00 0.00 2796.63 822.00" xmlns="http://www.w3.org/2000/svg" xmlns:xlink="http://www.w3.org/1999/xlink">
<g id="graph0" class="graph" transform="scale(1 1) rotate(0) translate(4 818)">
<title>G</title>
<polygon fill="white" stroke="none" points="-4,4 -4,-818 2792.63,-818 2792.63,4 -4,4"/>
<g id="clust1" class="cluster"><title>cluster_0</title>
<polygon fill="none" stroke="black" points="8,-80 8,-806 1058,-806 1058,-80 8,-80"/>
<text text-anchor="middle" x="533" y="-790.8" font-family="Times New Roman,serif" font-size="14.00">Variability</text>
</g>
<g id="clust2" class="cluster"><title>cluster_1</title>
<polygon fill="none" stroke="black" points="1066,-8 1066,-443 1512,-443 1512,-8 1066,-8"/>
<text text-anchor="middle" x="1289" y="-427.8" font-family="Times New Roman,serif" font-size="14.00">Similarities</text>
</g>
<!-- ButtonListener -->
<g id="node1" class="node"><title>ButtonListener</title>
<ellipse fill="none" stroke="red" cx="97" cy="-757" rx="63.8893" ry="18"/>
<text text-anchor="middle" x="97" y="-753.3" font-family="Times New Roman,serif" font-size="14.00">ButtonListener</text>
</g>
<!-- ButtonListener$$GUI -->
<g id="node2" class="node"><title>ButtonListener$$GUI</title>
<ellipse fill="none" stroke="red" cx="685" cy="-541" rx="89.0842" ry="18"/>
<text text-anchor="middle" x="685" y="-537.3" font-family="Times New Roman,serif" font-size="14.00">ButtonListener$$GUI</text>
</g>
<!-- ButtonListener&#45;&gt;ButtonListener$$GUI -->
<g id="edge1" class="edge"><title>ButtonListener&#45;&gt;ButtonListener$$GUI</title>
<path fill="none" stroke="red" d="M159.104,-752.698C240.192,-747.219 376.357,-733.651 415,-703 428.58,-692.228 416.367,-677.704 430,-667 511.379,-603.103 582.631,-699.698 660,-631 677.294,-615.644 683.04,-589.376 684.759,-569.346"/>
<polygon fill="red" stroke="red" points="688.259,-569.435 685.339,-559.25 681.271,-569.033 688.259,-569.435"/>
</g>
<!-- ButtonListener$$Index_History -->
<g id="node3" class="node"><title>ButtonListener$$Index_History</title>
<ellipse fill="none" stroke="red" cx="281" cy="-685" rx="124.578" ry="18"/>
<text text-anchor="middle" x="281" y="-681.3" font-family="Times New Roman,serif" font-size="14.00">ButtonListener$$Index_History</text>
</g>
<!-- ButtonListener&#45;&gt;ButtonListener$$Index_History -->
<g id="edge4" class="edge"><title>ButtonListener&#45;&gt;ButtonListener$$Index_History</title>
<path fill="none" stroke="red" d="M133.352,-742.17C160.759,-731.744 198.719,-717.303 229.286,-705.674"/>
<polygon fill="red" stroke="red" points="230.825,-708.833 238.927,-702.006 228.336,-702.29 230.825,-708.833"/>
</g>
<!-- ButtonListener$$Multi_Directory -->
<g id="node4" class="node"><title>ButtonListener$$Multi_Directory</title>
<ellipse fill="none" stroke="red" cx="824" cy="-613" rx="129.977" ry="18"/>
<text text-anchor="middle" x="824" y="-609.3" font-family="Times New Roman,serif" font-size="14.00">ButtonListener$$Multi_Directory</text>
</g>
<!-- ButtonListener&#45;&gt;ButtonListener$$Multi_Directory -->
<g id="edge5" class="edge"><title>ButtonListener&#45;&gt;ButtonListener$$Multi_Directory</title>
<path fill="none" stroke="red" d="M158.264,-751.982C241.718,-745.552 385.818,-730.75 430,-703 446.496,-692.639 438.426,-677.235 455,-667 466.319,-660.01 615.358,-640.131 720.513,-626.806"/>
<polygon fill="red" stroke="red" points="721.064,-630.264 730.546,-625.537 720.186,-623.319 721.064,-630.264"/>
</g>
<!-- ButtonListener$$Single_Directory -->
<g id="node5" class="node"><title>ButtonListener$$Single_Directory</title>
<ellipse fill="none" stroke="red" cx="482" cy="-613" rx="133.776" ry="18"/>
<text text-anchor="middle" x="482" y="-609.3" font-family="Times New Roman,serif" font-size="14.00">ButtonListener$$Single_Directory</text>
</g>
<!-- ButtonListener&#45;&gt;ButtonListener$$Single_Directory -->
<g id="edge9" class="edge"><title>ButtonListener&#45;&gt;ButtonListener$$Single_Directory</title>
<path fill="none" stroke="red" d="M107.243,-738.923C113.377,-728.59 121.266,-715.112 128,-703 136.791,-687.188 132.287,-677.527 147,-667 165.377,-653.852 282.153,-637.417 372.722,-626.363"/>
<polygon fill="red" stroke="red" points="373.285,-629.821 382.791,-625.143 372.443,-622.872 373.285,-629.821"/>
</g>
<!-- Index_History_Selector -->
<g id="node13" class="node"><title>Index_History_Selector</title>
<ellipse fill="none" stroke="red" cx="213" cy="-613" rx="97.4827" ry="18"/>
<text text-anchor="middle" x="213" y="-609.3" font-family="Times New Roman,serif" font-size="14.00">Index_History_Selector</text>
</g>
<!-- ButtonListener&#45;&gt;Index_History_Selector -->
<g id="edge11" class="edge"><title>ButtonListener&#45;&gt;Index_History_Selector</title>
<path fill="none" stroke="red" d="M100.404,-739.007C104.938,-719.828 114.5,-688.507 132,-667 142.354,-654.275 156.589,-643.549 170.24,-635.146"/>
<polygon fill="red" stroke="red" points="172.224,-638.04 179.08,-629.963 168.683,-632.002 172.224,-638.04"/>
</g>
<!-- MainFrame -->
<g id="node23" class="node"><title>MainFrame</title>
<ellipse fill="none" stroke="red" cx="557" cy="-469" rx="51.9908" ry="18"/>
<text text-anchor="middle" x="557" y="-465.3" font-family="Times New Roman,serif" font-size="14.00">MainFrame</text>
</g>
<!-- ButtonListener&#45;&gt;MainFrame -->
<g id="edge2" class="edge"><title>ButtonListener&#45;&gt;MainFrame</title>
<path fill="none" stroke="red" d="M89.0685,-738.994C75.896,-694.461 60.5679,-574.344 128,-523 183.812,-480.504 389.923,-471.915 494.882,-470.295"/>
<polygon fill="red" stroke="red" points="495.071,-473.792 505.022,-470.155 494.974,-466.793 495.071,-473.792"/>
</g>
<!-- MainFrame$$GUI -->
<g id="node24" class="node"><title>MainFrame$$GUI</title>
<ellipse fill="none" stroke="red" cx="927" cy="-106" rx="76.8869" ry="18"/>
<text text-anchor="middle" x="927" y="-102.3" font-family="Times New Roman,serif" font-size="14.00">MainFrame$$GUI</text>
</g>
<!-- ButtonListener&#45;&gt;MainFrame$$GUI -->
<g id="edge6" class="edge"><title>ButtonListener&#45;&gt;MainFrame$$GUI</title>
<path fill="none" stroke="red" d="M65.4671,-741.101C51.3729,-731.717 36.1229,-718.467 27,-703 6.4519,-668.161 8,-654.447 8,-614 8,-614 8,-614 8,-249 8,-209.196 -10.8829,-187.389 18,-160 47.4348,-132.087 619.533,-114.623 840.764,-108.992"/>
<polygon fill="red" stroke="red" points="841.122,-112.484 851.03,-108.732 840.945,-105.486 841.122,-112.484"/>
</g>
<!-- MainFrame$$Index_History -->
<g id="node25" class="node"><title>MainFrame$$Index_History</title>
<ellipse fill="none" stroke="red" cx="244" cy="-322" rx="112.38" ry="18"/>
<text text-anchor="middle" x="244" y="-318.3" font-family="Times New Roman,serif" font-size="14.00">MainFrame$$Index_History</text>
</g>
<!-- ButtonListener&#45;&gt;MainFrame$$Index_History -->
<g id="edge12" class="edge"><title>ButtonListener&#45;&gt;MainFrame$$Index_History</title>
<path fill="none" stroke="red" d="M91.1683,-739.032C87.8898,-728.737 84.0537,-715.261 82,-703 75.455,-663.926 77,-653.618 77,-614 77,-614 77,-614 77,-468 77,-406.497 142.379,-365.192 191.322,-342.887"/>
<polygon fill="red" stroke="red" points="192.823,-346.051 200.559,-338.811 189.997,-339.647 192.823,-346.051"/>
</g>
<!-- MainFrame$$Multi_Directory -->
<g id="node26" class="node"><title>MainFrame$$Multi_Directory</title>
<ellipse fill="none" stroke="red" cx="154" cy="-178" rx="118.079" ry="18"/>
<text text-anchor="middle" x="154" y="-174.3" font-family="Times New Roman,serif" font-size="14.00">MainFrame$$Multi_Directory</text>
</g>
<!-- ButtonListener&#45;&gt;MainFrame$$Multi_Directory -->
<g id="edge10" class="edge"><title>ButtonListener&#45;&gt;MainFrame$$Multi_Directory</title>
<path fill="none" stroke="red" d="M71.7648,-740.234C60.9435,-730.466 49.5683,-717.118 43,-703 26.0791,-666.63 28,-654.113 28,-614 28,-614 28,-614 28,-321 28,-268.953 75.3967,-225.635 112.177,-201.019"/>
<polygon fill="red" stroke="red" points="114.282,-203.826 120.788,-195.464 110.488,-197.943 114.282,-203.826"/>
</g>
<!-- MainFrame$$Single_Directory -->
<g id="node29" class="node"><title>MainFrame$$Single_Directory</title>
<ellipse fill="none" stroke="red" cx="580" cy="-178" rx="121.578" ry="18"/>
<text text-anchor="middle" x="580" y="-174.3" font-family="Times New Roman,serif" font-size="14.00">MainFrame$$Single_Directory</text>
</g>
<!-- ButtonListener&#45;&gt;MainFrame$$Single_Directory -->
<g id="edge3" class="edge"><title>ButtonListener&#45;&gt;MainFrame$$Single_Directory</title>
<path fill="none" stroke="red" d="M80.7403,-739.177C74.7132,-728.933 68.8421,-715.461 65,-703 53.1343,-664.517 48,-654.271 48,-614 48,-614 48,-614 48,-468 48,-389.43 47.9947,-346.621 114,-304 214.222,-239.285 275.608,-325.748 380,-268 398.225,-257.918 392.776,-243.709 410,-232 435.035,-214.981 465.947,-203.082 494.555,-194.936"/>
<polygon fill="red" stroke="red" points="495.836,-198.214 504.564,-192.209 493.996,-191.461 495.836,-198.214"/>
</g>
<!-- OptionStorage -->
<g id="node37" class="node"><title>OptionStorage</title>
<ellipse fill="none" stroke="blue" cx="1368" cy="-250" rx="63.8893" ry="18"/>
<text text-anchor="middle" x="1368" y="-246.3" font-family="Times New Roman,serif" font-size="14.00">OptionStorage</text>
</g>
<!-- ButtonListener&#45;&gt;OptionStorage -->
<g id="edge7" class="edge"><title>ButtonListener&#45;&gt;OptionStorage</title>
<path fill="none" stroke="red" d="M156.148,-750.05C195.697,-746.293 248.918,-741.661 296,-739 440.159,-730.852 1455.1,-738.71 1595,-703 1663.18,-685.597 1699.26,-691.012 1736,-631 1795.56,-533.718 1786.87,-457.432 1707,-376 1666.54,-334.754 1508.79,-288.145 1423.49,-265.247"/>
<polygon fill="red" stroke="red" points="1424.27,-261.834 1413.71,-262.641 1422.47,-268.598 1424.27,-261.834"/>
</g>
<!-- OptionWindow -->
<g id="node38" class="node"><title>OptionWindow</title>
<ellipse fill="none" stroke="blue" cx="1436" cy="-322" rx="67.6881" ry="18"/>
<text text-anchor="middle" x="1436" y="-318.3" font-family="Times New Roman,serif" font-size="14.00">OptionWindow</text>
</g>
<!-- ButtonListener&#45;&gt;OptionWindow -->
<g id="edge8" class="edge"><title>ButtonListener&#45;&gt;OptionWindow</title>
<path fill="none" stroke="red" d="M156.604,-750.312C196.115,-746.688 249.119,-742.107 296,-739 454.704,-728.481 1722,-773.052 1722,-614 1722,-614 1722,-614 1722,-468 1722,-373.046 1595.04,-340.254 1510.3,-328.943"/>
<polygon fill="red" stroke="red" points="1510.54,-325.446 1500.18,-327.667 1509.67,-332.391 1510.54,-325.446"/>
</g>
<!-- ButtonListener$$GUI&#45;&gt;MainFrame -->
<g id="edge13" class="edge"><title>ButtonListener$$GUI&#45;&gt;MainFrame</title>
<path fill="none" stroke="red" d="M655.634,-523.941C636.816,-513.65 612.282,-500.232 592.391,-489.354"/>
<polygon fill="red" stroke="red" points="594.068,-486.283 583.615,-484.555 590.71,-492.424 594.068,-486.283"/>
</g>
<!-- ButtonListener$$GUI&#45;&gt;MainFrame$$GUI -->
<g id="edge14" class="edge"><title>ButtonListener$$GUI&#45;&gt;MainFrame$$GUI</title>
<path fill="none" stroke="red" d="M718.715,-524.19C774.348,-496.052 883.9,-431.52 931,-340 965.694,-272.586 947.45,-179.011 935.181,-133.702"/>
<polygon fill="red" stroke="red" points="938.536,-132.702 932.451,-124.028 931.799,-134.603 938.536,-132.702"/>
</g>
<!-- ButtonListener$$GUI&#45;&gt;OptionStorage -->
<g id="edge15" class="edge"><title>ButtonListener$$GUI&#45;&gt;OptionStorage</title>
<path fill="none" stroke="red" d="M766.792,-533.84C959.085,-517.374 1429.95,-464.811 1513,-340 1521.86,-326.68 1522.17,-317.113 1513,-304 1502.4,-288.841 1461.08,-274.622 1425.25,-264.735"/>
<polygon fill="red" stroke="red" points="1425.88,-261.282 1415.32,-262.064 1424.07,-268.041 1425.88,-261.282"/>
</g>
<!-- ButtonListener$$Index_History&#45;&gt;ButtonListener$$GUI -->
<g id="edge16" class="edge"><title>ButtonListener$$Index_History&#45;&gt;ButtonListener$$GUI</title>
<path fill="none" stroke="red" d="M372.1,-672.668C474.847,-659.571 629.156,-638.818 640,-631 660.546,-616.188 672.305,-589.243 678.61,-568.868"/>
<polygon fill="red" stroke="red" points="681.992,-569.769 681.355,-559.193 675.258,-567.858 681.992,-569.769"/>
</g>
<!-- ButtonListener$$Index_History&#45;&gt;ButtonListener$$Multi_Directory -->
<g id="edge17" class="edge"><title>ButtonListener$$Index_History&#45;&gt;ButtonListener$$Multi_Directory</title>
<path fill="none" stroke="red" d="M370.665,-672.441C467.449,-659.964 621.288,-640.132 722.459,-627.09"/>
<polygon fill="red" stroke="red" points="722.916,-630.56 732.386,-625.81 722.021,-623.618 722.916,-630.56"/>
</g>
<!-- ButtonListener$$Index_History&#45;&gt;ButtonListener$$Single_Directory -->
<g id="edge21" class="edge"><title>ButtonListener$$Index_History&#45;&gt;ButtonListener$$Single_Directory</title>
<path fill="none" stroke="red" d="M326.359,-668.203C356.055,-657.862 395.053,-644.28 426.584,-633.299"/>
<polygon fill="red" stroke="red" points="427.818,-636.576 436.11,-629.981 425.516,-629.965 427.818,-636.576"/>
</g>
<!-- ButtonListener$$Index_History&#45;&gt;Index_History_Selector -->
<g id="edge18" class="edge"><title>ButtonListener$$Index_History&#45;&gt;Index_History_Selector</title>
<path fill="none" stroke="red" d="M264.539,-667.055C256.103,-658.371 245.683,-647.644 236.425,-638.114"/>
<polygon fill="red" stroke="red" points="238.788,-635.523 229.309,-630.789 233.767,-640.401 238.788,-635.523"/>
</g>
<!-- ButtonListener$$Index_History&#45;&gt;MainFrame -->
<g id="edge19" class="edge"><title>ButtonListener$$Index_History&#45;&gt;MainFrame</title>
<path fill="none" stroke="red" d="M372.957,-672.82C472.037,-660.329 616.763,-640.603 625,-631 635.417,-618.855 631.322,-609.698 625,-595 615.808,-573.629 599.53,-578.602 587,-559 574.83,-539.962 567.045,-515.457 562.464,-496.981"/>
<polygon fill="red" stroke="red" points="565.853,-496.1 560.184,-487.149 559.033,-497.682 565.853,-496.1"/>
</g>
<!-- ButtonListener$$Index_History&#45;&gt;MainFrame$$Index_History -->
<g id="edge20" class="edge"><title>ButtonListener$$Index_History&#45;&gt;MainFrame$$Index_History</title>
<path fill="none" stroke="red" d="M297.463,-666.919C305.654,-657.218 314.704,-644.366 319,-631 323.896,-615.768 320.534,-610.926 319,-595 310.077,-502.365 273.091,-397.418 254.609,-349.453"/>
<polygon fill="red" stroke="red" points="257.859,-348.151 250.963,-340.107 251.337,-350.696 257.859,-348.151"/>
</g>
<!-- ButtonListener$$Multi_Directory&#45;&gt;ButtonListener$$GUI -->
<g id="edge22" class="edge"><title>ButtonListener$$Multi_Directory&#45;&gt;ButtonListener$$GUI</title>
<path fill="none" stroke="red" d="M791.059,-595.411C771.566,-585.594 746.708,-573.076 725.958,-562.627"/>
<polygon fill="red" stroke="red" points="727.253,-559.36 716.748,-557.988 724.105,-565.612 727.253,-559.36"/>
</g>
<!-- ButtonListener$$Multi_Directory&#45;&gt;MainFrame -->
<g id="edge23" class="edge"><title>ButtonListener$$Multi_Directory&#45;&gt;MainFrame</title>
<path fill="none" stroke="red" d="M820.812,-594.809C816.131,-574.536 805.402,-541.291 783,-523 736.953,-485.402 668.937,-473.536 619.557,-470.231"/>
<polygon fill="red" stroke="red" points="619.499,-466.722 609.317,-469.649 619.102,-473.711 619.499,-466.722"/>
</g>
<!-- ButtonListener$$Multi_Directory&#45;&gt;MainFrame$$Multi_Directory -->
<g id="edge24" class="edge"><title>ButtonListener$$Multi_Directory&#45;&gt;MainFrame$$Multi_Directory</title>
<path fill="none" stroke="red" d="M747.881,-598.405C700.971,-589.185 639.882,-575.656 587,-559 369.495,-490.494 237.868,-536.994 123,-340 98.2048,-297.477 121.054,-238.937 138.493,-205.423"/>
<polygon fill="red" stroke="red" points="141.766,-206.73 143.449,-196.27 135.61,-203.398 141.766,-206.73"/>
</g>
<!-- ButtonListener$$Single_Directory&#45;&gt;ButtonListener$$GUI -->
<g id="edge25" class="edge"><title>ButtonListener$$Single_Directory&#45;&gt;ButtonListener$$GUI</title>
<path fill="none" stroke="red" d="M528.318,-596.028C559.284,-585.35 600.095,-571.278 632.302,-560.172"/>
<polygon fill="red" stroke="red" points="633.689,-563.396 642.001,-556.827 631.407,-556.778 633.689,-563.396"/>
</g>
<!-- ButtonListener$$Single_Directory&#45;&gt;MainFrame -->
<g id="edge26" class="edge"><title>ButtonListener$$Single_Directory&#45;&gt;MainFrame</title>
<path fill="none" stroke="red" d="M491.047,-594.871C504.068,-570.218 528.193,-524.542 543.377,-495.794"/>
<polygon fill="red" stroke="red" points="546.579,-497.225 548.154,-486.748 540.389,-493.956 546.579,-497.225"/>
</g>
<!-- ButtonListener$$Single_Directory&#45;&gt;MainFrame$$Single_Directory -->
<g id="edge27" class="edge"><title>ButtonListener$$Single_Directory&#45;&gt;MainFrame$$Single_Directory</title>
<path fill="none" stroke="red" d="M469.192,-594.93C448.14,-565.687 407.058,-503.31 392,-443 384.787,-414.109 388.556,-405.578 392,-376 400.122,-306.253 403.061,-276.957 457,-232 474.58,-217.347 496.824,-206.127 517.547,-197.866"/>
<polygon fill="red" stroke="red" points="518.847,-201.116 526.939,-194.277 516.349,-194.577 518.847,-201.116"/>
</g>
<!-- Commandline -->
<g id="node6" class="node"><title>Commandline</title>
<ellipse fill="none" stroke="red" cx="676" cy="-757" rx="61.1893" ry="18"/>
<text text-anchor="middle" x="676" y="-753.3" font-family="Times New Roman,serif" font-size="14.00">Commandline</text>
</g>
<!-- Indexer -->
<g id="node14" class="node"><title>Indexer</title>
<ellipse fill="none" stroke="blue" cx="1466" cy="-178" rx="38.1938" ry="18"/>
<text text-anchor="middle" x="1466" y="-174.3" font-family="Times New Roman,serif" font-size="14.00">Indexer</text>
</g>
<!-- Commandline&#45;&gt;Indexer -->
<g id="edge28" class="edge"><title>Commandline&#45;&gt;Indexer</title>
<path fill="none" stroke="red" d="M719.049,-744.073C727.899,-742.038 737.202,-740.197 746,-739 992.084,-705.517 1626.23,-777.954 1863,-703 2029.76,-650.208 2108.92,-640.931 2192,-487 2246.42,-386.165 2249.78,-294.894 2154,-232 2100.83,-197.083 1662.27,-183.622 1514.44,-180.05"/>
<polygon fill="red" stroke="red" points="1514.39,-176.548 1504.31,-179.81 1514.22,-183.546 1514.39,-176.548"/>
</g>
<!-- MrPinkMain -->
<g id="node31" class="node"><title>MrPinkMain</title>
<ellipse fill="none" stroke="blue" cx="1202" cy="-394" rx="55.7903" ry="18"/>
<text text-anchor="middle" x="1202" y="-390.3" font-family="Times New Roman,serif" font-size="14.00">MrPinkMain</text>
</g>
<!-- Commandline&#45;&gt;MrPinkMain -->
<g id="edge29" class="edge"><title>Commandline&#45;&gt;MrPinkMain</title>
<path fill="none" stroke="red" d="M719.053,-744.102C727.903,-742.064 737.204,-740.215 746,-739 800.518,-731.467 1697.8,-742.617 1736,-703 1892.8,-540.397 1428.06,-436.554 1260.08,-405.108"/>
<polygon fill="red" stroke="red" points="1260.63,-401.652 1250.16,-403.272 1259.36,-408.534 1260.63,-401.652"/>
</g>
<!-- Commandline&#45;&gt;OptionStorage -->
<g id="edge30" class="edge"><title>Commandline&#45;&gt;OptionStorage</title>
<path fill="none" stroke="red" d="M719.052,-744.089C727.901,-742.052 737.203,-740.207 746,-739 860.881,-723.235 1691.08,-765.115 1789,-703 1940.06,-607.174 1892.01,-391.533 1736,-304 1620.81,-239.37 1571.06,-291.012 1441,-268 1435.55,-267.036 1429.9,-265.924 1424.27,-264.739"/>
<polygon fill="red" stroke="red" points="1424.7,-261.252 1414.19,-262.545 1423.21,-268.092 1424.7,-261.252"/>
</g>
<!-- UI -->
<g id="node41" class="node"><title>UI</title>
<ellipse fill="none" stroke="blue" cx="1477" cy="-250" rx="27" ry="18"/>
<text text-anchor="middle" x="1477" y="-246.3" font-family="Times New Roman,serif" font-size="14.00">UI</text>
</g>
<!-- Commandline&#45;&gt;UI -->
<g id="edge31" class="edge"><title>Commandline&#45;&gt;UI</title>
<path fill="none" stroke="red" d="M719.051,-744.081C727.9,-742.045 737.202,-740.202 746,-739 864.741,-722.773 1717.47,-757.908 1824,-703 1953.8,-636.096 1938.54,-496.461 1856,-376 1828.77,-336.266 1818.34,-325.008 1775,-304 1688.19,-261.926 1572.65,-252.94 1514.22,-251.223"/>
<polygon fill="red" stroke="red" points="1514.07,-247.719 1503.99,-250.981 1513.9,-254.717 1514.07,-247.719"/>
</g>
<!-- ContentHandler -->
<g id="node7" class="node"><title>ContentHandler</title>
<ellipse fill="none" stroke="blue" cx="1436" cy="-34" rx="67.6881" ry="18"/>
<text text-anchor="middle" x="1436" y="-30.3" font-family="Times New Roman,serif" font-size="14.00">ContentHandler</text>
</g>
<!-- HTML -->
<g id="node8" class="node"><title>HTML</title>
<ellipse fill="none" stroke="red" cx="500" cy="-685" rx="36.2938" ry="18"/>
<text text-anchor="middle" x="500" y="-681.3" font-family="Times New Roman,serif" font-size="14.00">HTML</text>
</g>
<!-- HTML&#45;&gt;ContentHandler -->
<g id="edge32" class="edge"><title>HTML&#45;&gt;ContentHandler</title>
<path fill="none" stroke="red" d="M526.736,-672.428C532.653,-670.285 538.961,-668.311 545,-667 780.925,-615.785 846.791,-655.143 1087,-631 1563.56,-583.101 1720.43,-688.373 2155,-487 2313.71,-413.455 2366.95,-362.685 2420,-196 2435.64,-146.873 2455.61,-117.279 2420,-80 2388.84,-47.3849 1740.54,-37.9634 1513.61,-35.6591"/>
<polygon fill="red" stroke="red" points="1513.49,-32.1578 1503.45,-35.5578 1513.42,-39.1574 1513.49,-32.1578"/>
</g>
<!-- History_Indexer -->
<g id="node9" class="node"><title>History_Indexer</title>
<ellipse fill="none" stroke="red" cx="226" cy="-541" rx="69.5877" ry="18"/>
<text text-anchor="middle" x="226" y="-537.3" font-family="Times New Roman,serif" font-size="14.00">History_Indexer</text>
</g>
<!-- History_Indexer&#45;&gt;Index_History_Selector -->
<g id="edge33" class="edge"><title>History_Indexer&#45;&gt;Index_History_Selector</title>
<path fill="none" stroke="red" d="M228.705,-559.275C228.059,-567.115 226.526,-576.567 224.539,-585.29"/>
<polygon fill="red" stroke="red" points="221.129,-584.498 222.025,-595.055 227.908,-586.243 221.129,-584.498"/>
</g>
<!-- History_Query -->
<g id="node10" class="node"><title>History_Query</title>
<ellipse fill="none" stroke="red" cx="375" cy="-178" rx="64.9885" ry="18"/>
<text text-anchor="middle" x="375" y="-174.3" font-family="Times New Roman,serif" font-size="14.00">History_Query</text>
</g>
<!-- HitComponentLabel -->
<g id="node11" class="node"><title>HitComponentLabel</title>
<ellipse fill="none" stroke="red" cx="824" cy="-178" rx="84.485" ry="18"/>
<text text-anchor="middle" x="824" y="-174.3" font-family="Times New Roman,serif" font-size="14.00">HitComponentLabel</text>
</g>
<!-- HitDocument -->
<g id="node12" class="node"><title>HitDocument</title>
<ellipse fill="none" stroke="red" cx="643" cy="-250" rx="59.2899" ry="18"/>
<text text-anchor="middle" x="643" y="-246.3" font-family="Times New Roman,serif" font-size="14.00">HitDocument</text>
</g>
<!-- HitDocument&#45;&gt;HitComponentLabel -->
<g id="edge34" class="edge"><title>HitDocument&#45;&gt;HitComponentLabel</title>
<path fill="none" stroke="red" d="M678.328,-235.337C705.992,-224.638 744.779,-209.638 775.374,-197.806"/>
<polygon fill="red" stroke="red" points="776.931,-200.956 784.995,-194.085 774.406,-194.427 776.931,-200.956"/>
</g>
<!-- OS -->
<g id="node36" class="node"><title>OS</title>
<ellipse fill="none" stroke="blue" cx="1101" cy="-394" rx="27" ry="18"/>
<text text-anchor="middle" x="1101" y="-390.3" font-family="Times New Roman,serif" font-size="14.00">OS</text>
</g>
<!-- HitDocument&#45;&gt;OS -->
<g id="edge35" class="edge"><title>HitDocument&#45;&gt;OS</title>
<path fill="none" stroke="red" d="M686.408,-262.421C694.552,-264.402 703.015,-266.352 711,-268 808.032,-288.032 837.022,-272.622 931,-304 984.435,-321.841 1041.45,-354.946 1074,-375.364"/>
<polygon fill="red" stroke="red" points="1072.2,-378.361 1082.51,-380.764 1075.95,-372.451 1072.2,-378.361"/>
</g>
<!-- Index_History_Selector&#45;&gt;History_Indexer -->
<g id="edge36" class="edge"><title>Index_History_Selector&#45;&gt;History_Indexer</title>
<path fill="none" stroke="red" d="M210.298,-594.697C210.942,-586.898 212.463,-577.509 214.434,-568.829"/>
<polygon fill="red" stroke="red" points="217.834,-569.66 216.928,-559.104 211.053,-567.921 217.834,-569.66"/>
</g>
<!-- Index_History_Selector&#45;&gt;MainFrame -->
<g id="edge37" class="edge"><title>Index_History_Selector&#45;&gt;MainFrame</title>
<path fill="none" stroke="red" d="M182.331,-595.805C168.859,-586.907 154.434,-574.504 147,-559 140.082,-544.573 136.436,-535.017 147,-523 169.637,-497.248 386.915,-480.411 495.649,-473.528"/>
<polygon fill="red" stroke="red" points="496.061,-477.009 505.823,-472.893 495.624,-470.023 496.061,-477.009"/>
</g>
<!-- Index_History_Selector&#45;&gt;MainFrame$$Index_History -->
<g id="edge38" class="edge"><title>Index_History_Selector&#45;&gt;MainFrame$$Index_History</title>
<path fill="none" stroke="red" d="M176.621,-596.176C161.482,-587.546 145.483,-575.258 137,-559 129.598,-544.815 133.109,-538.52 137,-523 154.037,-455.039 199.077,-384.938 224.966,-348.499"/>
<polygon fill="red" stroke="red" points="228.097,-350.14 231.107,-339.982 222.419,-346.046 228.097,-350.14"/>
</g>
<!-- Indexer&#45;&gt;HTML -->
<g id="edge44" class="edge"><title>Indexer&#45;&gt;HTML</title>
<path fill="none" stroke="red" d="M1504.32,-180.491C1540.48,-184.172 1592.91,-195.883 1619,-232 1633.35,-251.867 1627.95,-325.923 1620,-340 1462.9,-618.049 1275.3,-564.207 963,-631 780.658,-669.998 726.825,-625.66 545,-667 542.175,-667.642 539.29,-668.423 536.412,-669.292"/>
<polygon fill="red" stroke="red" points="535.132,-666.029 526.756,-672.518 537.35,-672.668 535.132,-666.029"/>
</g>
<!-- Indexer$$Base -->
<g id="node15" class="node"><title>Indexer$$Base</title>
<ellipse fill="none" stroke="blue" cx="1440" cy="-106" rx="64.189" ry="18"/>
<text text-anchor="middle" x="1440" y="-102.3" font-family="Times New Roman,serif" font-size="14.00">Indexer$$Base</text>
</g>
<!-- Indexer&#45;&gt;Indexer$$Base -->
<g id="edge39" class="edge"><title>Indexer&#45;&gt;Indexer$$Base</title>
<path fill="none" stroke="blue" d="M1459.71,-160.055C1456.78,-152.176 1453.23,-142.617 1449.95,-133.794"/>
<polygon fill="blue" stroke="blue" points="1453.18,-132.431 1446.42,-124.275 1446.62,-134.868 1453.18,-132.431"/>
</g>
<!-- Indexer$$Commandline -->
<g id="node16" class="node"><title>Indexer$$Commandline</title>
<ellipse fill="none" stroke="red" cx="878" cy="-685" rx="96.6831" ry="18"/>
<text text-anchor="middle" x="878" y="-681.3" font-family="Times New Roman,serif" font-size="14.00">Indexer$$Commandline</text>
</g>
<!-- Indexer&#45;&gt;Indexer$$Commandline -->
<g id="edge45" class="edge"><title>Indexer&#45;&gt;Indexer$$Commandline</title>
<path fill="none" stroke="red" d="M1504,-180.533C1609.14,-185.161 1898.05,-200.645 1926,-232 1957.94,-267.831 1944.85,-295.857 1926,-340 1889.27,-426.003 1707.77,-593.73 1622,-631 1491.56,-687.681 1124.39,-651.614 983,-667 974.035,-667.976 964.669,-669.198 955.381,-670.537"/>
<polygon fill="red" stroke="red" points="954.732,-667.095 945.357,-672.029 955.764,-674.018 954.732,-667.095"/>
</g>
<!-- Indexer$$HTML -->
<g id="node17" class="node"><title>Indexer$$HTML</title>
<ellipse fill="none" stroke="red" cx="377" cy="-757" rx="72.2875" ry="18"/>
<text text-anchor="middle" x="377" y="-753.3" font-family="Times New Roman,serif" font-size="14.00">Indexer$$HTML</text>
</g>
<!-- Indexer&#45;&gt;Indexer$$HTML -->
<g id="edge47" class="edge"><title>Indexer&#45;&gt;Indexer$$HTML</title>
<path fill="none" stroke="red" d="M1504.43,-180.002C1619.39,-183.392 1954.74,-196.286 1987,-232 2063.28,-316.438 2022.85,-389.606 1964,-487 1879.22,-627.311 1820.21,-650.232 1665,-703 1537.97,-746.187 591.232,-723.159 458,-739 451.289,-739.798 444.311,-740.876 437.389,-742.105"/>
<polygon fill="red" stroke="red" points="436.506,-738.71 427.326,-743.999 437.801,-745.589 436.506,-738.71"/>
</g>
<!-- Indexer$$Multi_Directory -->
<g id="node18" class="node"><title>Indexer$$Multi_Directory</title>
<ellipse fill="none" stroke="red" cx="659" cy="-685" rx="104.782" ry="18"/>
<text text-anchor="middle" x="659" y="-681.3" font-family="Times New Roman,serif" font-size="14.00">Indexer$$Multi_Directory</text>
</g>
<!-- Indexer&#45;&gt;Indexer$$Multi_Directory -->
<g id="edge48" class="edge"><title>Indexer&#45;&gt;Indexer$$Multi_Directory</title>
<path fill="none" stroke="red" d="M1504.42,-178.236C1592.6,-177.391 1805.4,-180.82 1850,-232 1881.54,-268.187 1867.37,-295.253 1850,-340 1846.04,-350.209 1593.92,-626.362 1584,-631 1502.19,-669.244 861.888,-658.27 772,-667 762.152,-667.956 751.852,-669.185 741.65,-670.545"/>
<polygon fill="red" stroke="red" points="740.93,-667.111 731.501,-671.942 741.885,-674.045 740.93,-667.111"/>
</g>
<!-- Indexer$$Single_Directory -->
<g id="node19" class="node"><title>Indexer$$Single_Directory</title>
<ellipse fill="none" stroke="red" cx="863" cy="-757" rx="107.781" ry="18"/>
<text text-anchor="middle" x="863" y="-753.3" font-family="Times New Roman,serif" font-size="14.00">Indexer$$Single_Directory</text>
</g>
<!-- Indexer&#45;&gt;Indexer$$Single_Directory -->
<g id="edge40" class="edge"><title>Indexer&#45;&gt;Indexer$$Single_Directory</title>
<path fill="none" stroke="red" d="M1504.22,-180.053C1645.12,-184.172 2130.55,-200.536 2192,-232 2382.89,-329.75 2589.29,-607.475 2496,-703 2466.55,-733.157 1021,-735.437 979,-739 968.626,-739.88 957.766,-741.087 947.029,-742.455"/>
<polygon fill="red" stroke="red" points="946.246,-739.028 936.792,-743.811 947.165,-745.968 946.246,-739.028"/>
</g>
<!-- Indexer$$TXT -->
<g id="node20" class="node"><title>Indexer$$TXT</title>
<ellipse fill="none" stroke="red" cx="532" cy="-757" rx="64.9885" ry="18"/>
<text text-anchor="middle" x="532" y="-753.3" font-family="Times New Roman,serif" font-size="14.00">Indexer$$TXT</text>
</g>
<!-- Indexer&#45;&gt;Indexer$$TXT -->
<g id="edge43" class="edge"><title>Indexer&#45;&gt;Indexer$$TXT</title>
<path fill="none" stroke="red" d="M1504.39,-180.204C1631.03,-184.466 2030.23,-200.309 2078,-232 2226.44,-330.482 2201.99,-474.992 2116,-631 2087.07,-683.482 2059.35,-685.603 2002,-703 1853.52,-748.045 759.937,-719.532 606,-739 600.052,-739.752 593.881,-740.774 587.755,-741.945"/>
<polygon fill="red" stroke="red" points="586.629,-738.603 577.534,-744.037 588.033,-745.461 586.629,-738.603"/>
</g>
<!-- IndexerException -->
<g id="node21" class="node"><title>IndexerException</title>
<ellipse fill="none" stroke="blue" cx="1276" cy="-34" rx="74.9875" ry="18"/>
<text text-anchor="middle" x="1276" y="-30.3" font-family="Times New Roman,serif" font-size="14.00">IndexerException</text>
</g>
<!-- Indexer&#45;&gt;IndexerException -->
<g id="edge41" class="edge"><title>Indexer&#45;&gt;IndexerException</title>
<path fill="none" stroke="blue" d="M1438.73,-164.978C1418.13,-155.299 1389.64,-140.605 1367,-124 1340.85,-104.815 1314.77,-78.3722 1297.28,-59.3012"/>
<polygon fill="blue" stroke="blue" points="1299.86,-56.943 1290.56,-51.8765 1294.67,-61.6398 1299.86,-56.943"/>
</g>
<!-- Latex -->
<g id="node22" class="node"><title>Latex</title>
<ellipse fill="none" stroke="red" cx="1019" cy="-757" rx="30.5947" ry="18"/>
<text text-anchor="middle" x="1019" y="-753.3" font-family="Times New Roman,serif" font-size="14.00">Latex</text>
</g>
<!-- Indexer&#45;&gt;Latex -->
<g id="edge42" class="edge"><title>Indexer&#45;&gt;Latex</title>
<path fill="none" stroke="red" d="M1504.35,-178.641C1644.12,-177.776 2125.51,-178.81 2268,-232 2493.23,-316.074 2701,-530.058 2534,-703 2481.36,-757.51 1296.99,-756.835 1060.04,-756.152"/>
<polygon fill="red" stroke="red" points="1059.81,-752.652 1049.79,-756.121 1059.78,-759.652 1059.81,-752.652"/>
</g>
<!-- Plain -->
<g id="node39" class="node"><title>Plain</title>
<ellipse fill="none" stroke="red" cx="1021" cy="-685" rx="28.6953" ry="18"/>
<text text-anchor="middle" x="1021" y="-681.3" font-family="Times New Roman,serif" font-size="14.00">Plain</text>
</g>
<!-- Indexer&#45;&gt;Plain -->
<g id="edge46" class="edge"><title>Indexer&#45;&gt;Plain</title>
<path fill="none" stroke="red" d="M1504.31,-180.19C1615.66,-184.038 1933.37,-197.937 1964,-232 1996.09,-267.692 1979.55,-294.587 1964,-340 1907.25,-505.78 1858.12,-559.83 1698,-631 1582.59,-682.298 1186.15,-684.854 1059.93,-684.324"/>
<polygon fill="red" stroke="red" points="1059.61,-680.822 1049.59,-684.271 1059.58,-687.822 1059.61,-680.822"/>
</g>
<!-- Indexer$$Base&#45;&gt;ContentHandler -->
<g id="edge49" class="edge"><title>Indexer$$Base&#45;&gt;ContentHandler</title>
<path fill="none" stroke="blue" d="M1439.01,-87.6966C1438.57,-79.9827 1438.04,-70.7125 1437.55,-62.1124"/>
<polygon fill="blue" stroke="blue" points="1441.04,-61.8883 1436.98,-52.1043 1434.05,-62.2878 1441.04,-61.8883"/>
</g>
<!-- Indexer$$Base&#45;&gt;IndexerException -->
<g id="edge50" class="edge"><title>Indexer$$Base&#45;&gt;IndexerException</title>
<path fill="none" stroke="blue" d="M1406.02,-90.496C1381.18,-79.8926 1347.26,-65.4142 1320.29,-53.9045"/>
<polygon fill="blue" stroke="blue" points="1321.64,-50.6751 1311.07,-49.9684 1318.89,-57.1132 1321.64,-50.6751"/>
</g>
<!-- Indexer$$Commandline&#45;&gt;ContentHandler -->
<g id="edge51" class="edge"><title>Indexer$$Commandline&#45;&gt;ContentHandler</title>
<path fill="none" stroke="red" d="M944.777,-671.949C957.436,-670.017 970.598,-668.246 983,-667 1383.52,-626.759 1490.1,-691.971 1888,-631 2009.06,-612.449 2043.42,-611.645 2154,-559 2364.89,-458.606 2477.84,-422.712 2534,-196 2546.4,-145.957 2569.7,-117.194 2534,-80 2498.75,-43.2787 1759.06,-36.5089 1514.05,-35.2729"/>
<polygon fill="red" stroke="red" points="1513.82,-31.7718 1503.8,-35.223 1513.78,-38.7718 1513.82,-31.7718"/>
</g>
<!-- Indexer$$Commandline&#45;&gt;Indexer$$Base -->
<g id="edge52" class="edge"><title>Indexer$$Commandline&#45;&gt;Indexer$$Base</title>
<path fill="none" stroke="red" d="M945.064,-671.964C957.636,-670.043 970.693,-668.272 983,-667 1158.03,-648.909 1608.38,-690.425 1774,-631 1799.1,-621.994 1798.45,-607.512 1822,-595 1865.2,-572.05 1888.88,-590.854 1926,-559 1957.86,-531.662 2034.34,-446.431 2078,-268 2090.09,-218.574 2082.38,-188.168 2040,-160 1997.06,-131.459 1664.19,-115.438 1513.58,-109.585"/>
<polygon fill="red" stroke="red" points="1513.62,-106.084 1503.5,-109.198 1513.35,-113.079 1513.62,-106.084"/>
</g>
<!-- Indexer$$Commandline&#45;&gt;IndexerException -->
<g id="edge53" class="edge"><title>Indexer$$Commandline&#45;&gt;IndexerException</title>
<path fill="none" stroke="red" d="M945.062,-671.943C957.634,-670.024 970.692,-668.259 983,-667 1166.44,-648.232 1633.37,-676.759 1812,-631 1950.3,-595.572 2330,-393.764 2330,-251 2330,-251 2330,-251 2330,-177 2330,-132.589 2340.56,-107.887 2306,-80 2265.04,-46.949 1411.28,-58.081 1359,-52 1352.23,-51.2122 1345.18,-50.1522 1338.19,-48.9445"/>
<polygon fill="red" stroke="red" points="1338.49,-45.4408 1328.02,-47.0838 1337.23,-52.3265 1338.49,-45.4408"/>
</g>
<!-- Indexer$$HTML&#45;&gt;HTML -->
<g id="edge54" class="edge"><title>Indexer$$HTML&#45;&gt;HTML</title>
<path fill="none" stroke="red" d="M404.604,-740.291C423.436,-729.573 448.436,-715.345 468.119,-704.144"/>
<polygon fill="red" stroke="red" points="470.065,-707.063 477.025,-699.075 466.602,-700.98 470.065,-707.063"/>
</g>
<!-- Indexer$$HTML&#45;&gt;Indexer$$Base -->
<g id="edge55" class="edge"><title>Indexer$$HTML&#45;&gt;Indexer$$Base</title>
<path fill="none" stroke="red" d="M427.324,-743.987C437.429,-741.986 448.011,-740.18 458,-739 738.606,-705.849 1453.99,-767.854 1729,-703 1950.79,-650.697 2062.84,-673.346 2194,-487 2259.24,-394.303 2247.36,-329.18 2189,-232 2157.57,-179.655 2130.19,-178.496 2072,-160 1833.05,-84.0478 1756.82,-162.141 1509,-124 1504.22,-123.265 1499.29,-122.356 1494.36,-121.344"/>
<polygon fill="red" stroke="red" points="1494.82,-117.863 1484.31,-119.146 1493.33,-124.701 1494.82,-117.863"/>
</g>
<!-- Indexer$$HTML&#45;&gt;Indexer$$Multi_Directory -->
<g id="edge56" class="edge"><title>Indexer$$HTML&#45;&gt;Indexer$$Multi_Directory</title>
<path fill="none" stroke="red" d="M426.121,-743.807C471.982,-732.423 540.813,-715.337 591.761,-702.691"/>
<polygon fill="red" stroke="red" points="592.837,-706.03 601.699,-700.224 591.151,-699.236 592.837,-706.03"/>
</g>
<!-- Indexer$$HTML&#45;&gt;IndexerException -->
<g id="edge57" class="edge"><title>Indexer$$HTML&#45;&gt;IndexerException</title>
<path fill="none" stroke="red" d="M427.322,-743.97C437.427,-741.97 448.01,-740.169 458,-739 761.587,-703.464 1531.08,-750.658 1833,-703 1944.68,-685.371 1972.77,-674.823 2077,-631 2282.93,-544.417 2406,-474.393 2406,-251 2406,-251 2406,-251 2406,-177 2406,-123.044 2380.93,-104.781 2333,-80 2284.91,-55.1371 1412.77,-58.2322 1359,-52 1352.23,-51.215 1345.18,-50.1567 1338.19,-48.95"/>
<polygon fill="red" stroke="red" points="1338.49,-45.4464 1328.02,-47.0904 1337.23,-52.3322 1338.49,-45.4464"/>
</g>
<!-- Indexer$$Multi_Directory&#45;&gt;ContentHandler -->
<g id="edge58" class="edge"><title>Indexer$$Multi_Directory&#45;&gt;ContentHandler</title>
<path fill="none" stroke="red" d="M730.883,-671.897C744.504,-669.97 758.664,-668.214 772,-667 1266.21,-622.009 1397.19,-704.323 1888,-631 2130.26,-594.808 2212.64,-617.404 2420,-487 2512.54,-428.8 2494.69,-370.759 2532,-268 2560.79,-188.714 2616.44,-140.828 2558,-80 2521.87,-42.3879 1761.87,-36.2129 1513.66,-35.1991"/>
<polygon fill="red" stroke="red" points="1513.65,-31.6992 1503.64,-35.1599 1513.62,-38.6991 1513.65,-31.6992"/>
</g>
<!-- Indexer$$Multi_Directory&#45;&gt;Indexer$$Base -->
<g id="edge59" class="edge"><title>Indexer$$Multi_Directory&#45;&gt;Indexer$$Base</title>
<path fill="none" stroke="red" d="M731.196,-671.967C744.724,-670.045 758.769,-668.274 772,-667 958.862,-649.011 1436.94,-687.367 1616,-631 1758.27,-586.214 1800.39,-559.12 1894,-443 1958.32,-363.216 2050.89,-312.133 1987,-232 1928.26,-158.322 1645.92,-124.615 1511.47,-112.544"/>
<polygon fill="red" stroke="red" points="1511.54,-109.036 1501.27,-111.644 1510.92,-116.009 1511.54,-109.036"/>
</g>
<!-- Indexer$$Multi_Directory&#45;&gt;IndexerException -->
<g id="edge60" class="edge"><title>Indexer$$Multi_Directory&#45;&gt;IndexerException</title>
<path fill="none" stroke="red" d="M731.193,-671.934C744.721,-670.016 758.767,-668.254 772,-667 973.036,-647.95 1485.02,-683.55 1680,-631 1746.04,-613.202 1760.4,-598.822 1816,-559 1877.09,-515.247 1889.88,-499.869 1939,-443 1975.51,-400.73 1994.23,-393.275 2011,-340 2085.99,-101.844 1758.05,-127.862 1513,-80 1444.72,-66.6647 1427.3,-65.2024 1359,-52 1353.17,-50.8734 1347.12,-49.6795 1341.05,-48.4675"/>
<polygon fill="red" stroke="red" points="1341.37,-44.9617 1330.88,-46.4194 1339.99,-51.8241 1341.37,-44.9617"/>
</g>
<!-- Indexer$$Single_Directory&#45;&gt;ContentHandler -->
<g id="edge61" class="edge"><title>Indexer$$Single_Directory&#45;&gt;ContentHandler</title>
<path fill="none" stroke="red" d="M936.79,-743.79C950.773,-741.873 965.309,-740.148 979,-739 1161.74,-723.676 2455.64,-762.766 2629,-703 2691.44,-681.475 2748,-680.045 2748,-614 2748,-614 2748,-614 2748,-177 2748,-131.016 2749.28,-106.918 2712,-80 2663.34,-44.8701 1783.65,-36.9725 1513.95,-35.3734"/>
<polygon fill="red" stroke="red" points="1513.87,-31.873 1503.85,-35.3148 1513.83,-38.8729 1513.87,-31.873"/>
</g>
<!-- Indexer$$Single_Directory&#45;&gt;Indexer$$Base -->
<g id="edge62" class="edge"><title>Indexer$$Single_Directory&#45;&gt;Indexer$$Base</title>
<path fill="none" stroke="red" d="M936.792,-743.807C950.775,-741.888 965.31,-740.159 979,-739 1149.66,-724.556 2358.71,-760.618 2520,-703 2580.53,-681.376 2634,-678.279 2634,-614 2634,-614 2634,-614 2634,-393 2634,-240.462 2522.42,-219.573 2382,-160 2303.04,-126.501 1722.64,-112.338 1514.24,-108.296"/>
<polygon fill="red" stroke="red" points="1514.07,-104.793 1504.01,-108.1 1513.94,-111.791 1514.07,-104.793"/>
</g>
<!-- Indexer$$Single_Directory&#45;&gt;IndexerException -->
<g id="edge63" class="edge"><title>Indexer$$Single_Directory&#45;&gt;IndexerException</title>
<path fill="none" stroke="red" d="M936.791,-743.797C950.774,-741.88 965.309,-740.153 979,-739 1067.6,-731.54 2496.87,-737.046 2579,-703 2631.85,-681.093 2672,-671.211 2672,-614 2672,-614 2672,-614 2672,-177 2672,-87.6844 2582.22,-103.321 2496,-80 2374.01,-47.0036 1484.56,-66.2902 1359,-52 1352.13,-51.2177 1344.98,-50.1491 1337.89,-48.9258"/>
<polygon fill="red" stroke="red" points="1338.04,-45.3963 1327.58,-47.0381 1336.78,-52.2819 1338.04,-45.3963"/>
</g>
<!-- Indexer$$TXT&#45;&gt;Indexer$$Base -->
<g id="edge64" class="edge"><title>Indexer$$TXT&#45;&gt;Indexer$$Base</title>
<path fill="none" stroke="red" d="M577.533,-744.03C586.887,-741.998 596.714,-740.169 606,-739 766.338,-718.807 1903.91,-744.866 2060,-703 2124.55,-685.688 2145.07,-678.577 2192,-631 2339.48,-481.482 2409.63,-268.806 2230,-160 2169.74,-123.501 1699.41,-111.471 1514.4,-108.127"/>
<polygon fill="red" stroke="red" points="1514.27,-104.624 1504.21,-107.946 1514.15,-111.623 1514.27,-104.624"/>
</g>
<!-- Indexer$$TXT&#45;&gt;Indexer$$Commandline -->
<g id="edge68" class="edge"><title>Indexer$$TXT&#45;&gt;Indexer$$Commandline</title>
<path fill="none" stroke="red" d="M580.114,-744.702C588.723,-742.75 597.618,-740.779 606,-739 672.014,-724.99 747.347,-710.421 801.968,-700.112"/>
<polygon fill="red" stroke="red" points="802.74,-703.528 811.919,-698.237 801.444,-696.649 802.74,-703.528"/>
</g>
<!-- Indexer$$TXT&#45;&gt;Indexer$$Multi_Directory -->
<g id="edge65" class="edge"><title>Indexer$$TXT&#45;&gt;Indexer$$Multi_Directory</title>
<path fill="none" stroke="red" d="M559.871,-740.638C577.646,-730.841 600.929,-718.008 620.464,-707.241"/>
<polygon fill="red" stroke="red" points="622.357,-710.193 629.426,-702.301 618.978,-704.063 622.357,-710.193"/>
</g>
<!-- Indexer$$TXT&#45;&gt;IndexerException -->
<g id="edge66" class="edge"><title>Indexer$$TXT&#45;&gt;IndexerException</title>
<path fill="none" stroke="red" d="M577.532,-744.023C586.886,-741.991 596.714,-740.165 606,-739 1273.84,-655.223 1452.57,-790.027 2120,-703 2338.65,-674.491 2558,-690.497 2558,-470 2558,-470 2558,-470 2558,-393 2558,-240.968 2546.25,-164.706 2420,-80 2371.04,-47.1471 1417.58,-58.7194 1359,-52 1352.23,-51.2229 1345.18,-50.1698 1338.19,-48.9661"/>
<polygon fill="red" stroke="red" points="1338.49,-45.4624 1328.02,-47.1094 1337.23,-52.3485 1338.49,-45.4624"/>
</g>
<!-- Indexer$$TXT&#45;&gt;Plain -->
<g id="edge67" class="edge"><title>Indexer$$TXT&#45;&gt;Plain</title>
<path fill="none" stroke="red" d="M578.397,-744.364C587.507,-742.357 597.021,-740.453 606,-739 772.594,-712.05 821.035,-746.845 984,-703 985.946,-702.477 987.916,-701.859 989.883,-701.175"/>
<polygon fill="red" stroke="red" points="991.548,-704.279 999.541,-697.324 988.956,-697.776 991.548,-704.279"/>
</g>
<!-- Latex&#45;&gt;ContentHandler -->
<g id="edge69" class="edge"><title>Latex&#45;&gt;ContentHandler</title>
<path fill="none" stroke="red" d="M1049.76,-756.099C1277.28,-756.704 2692.12,-758.236 2762,-703 2794.14,-677.595 2786,-654.969 2786,-614 2786,-614 2786,-614 2786,-177 2786,-132.589 2796.5,-107.963 2762,-80 2713.39,-40.6005 1791.65,-35.6652 1514.3,-35.0732"/>
<polygon fill="red" stroke="red" points="1513.93,-31.5725 1503.92,-35.0524 1513.91,-38.5725 1513.93,-31.5725"/>
</g>
<!-- MainFrame&#45;&gt;ButtonListener -->
<g id="edge76" class="edge"><title>MainFrame&#45;&gt;ButtonListener</title>
<path fill="none" stroke="red" d="M504.815,-470.305C407.074,-471.95 201.697,-480.592 146,-523 83.1776,-570.834 92.1871,-678.361 96.7246,-728.848"/>
<polygon fill="red" stroke="red" points="93.2545,-729.341 97.6211,-738.994 100.227,-728.724 93.2545,-729.341"/>
</g>
<!-- MainFrame&#45;&gt;HitDocument -->
<g id="edge70" class="edge"><title>MainFrame&#45;&gt;HitDocument</title>
<path fill="none" stroke="red" d="M605.745,-462.464C617.4,-458.757 628.596,-452.732 636,-443 655.112,-417.88 649.791,-324.965 645.718,-278.224"/>
<polygon fill="red" stroke="red" points="649.197,-277.835 644.801,-268.196 642.226,-278.473 649.197,-277.835"/>
</g>
<!-- MainFrame&#45;&gt;Indexer -->
<g id="edge71" class="edge"><title>MainFrame&#45;&gt;Indexer</title>
<path fill="none" stroke="red" d="M608.932,-467.973C750.406,-467.612 1140.48,-464.626 1267,-443 1418.03,-417.183 1505.27,-463.472 1596,-340 1624.42,-301.319 1622.78,-271.836 1596,-232 1577.57,-204.587 1542.22,-191.345 1513.03,-184.953"/>
<polygon fill="red" stroke="red" points="1513.49,-181.476 1503,-182.965 1512.13,-188.342 1513.49,-181.476"/>
</g>
<!-- MainFrame&#45;&gt;MainFrame$$GUI -->
<g id="edge72" class="edge"><title>MainFrame&#45;&gt;MainFrame$$GUI</title>
<path fill="none" stroke="red" d="M603.211,-460.612C624.415,-456.543 646.419,-450.727 654,-443 676.131,-420.444 661.815,-326.503 684,-304 733.955,-253.329 779.703,-305.781 840,-268 857.41,-257.091 854.969,-247.009 869,-232 885.109,-214.768 897.346,-217.046 908,-196 917.687,-176.866 919.838,-152.514 921.17,-134.122"/>
<polygon fill="red" stroke="red" points="924.666,-134.296 921.91,-124.066 917.685,-133.782 924.666,-134.296"/>
</g>
<!-- MainFrame&#45;&gt;MainFrame$$Index_History -->
<g id="edge81" class="edge"><title>MainFrame&#45;&gt;MainFrame$$Index_History</title>
<path fill="none" stroke="red" d="M508.878,-461.76C453.99,-454.614 371.559,-443.785 370,-443 332.949,-424.332 335.131,-404.52 305,-376 294.445,-366.009 282.444,-355.425 271.895,-346.365"/>
<polygon fill="red" stroke="red" points="274.039,-343.593 264.159,-339.768 269.497,-348.92 274.039,-343.593"/>
</g>
<!-- MainFrame&#45;&gt;MainFrame$$Multi_Directory -->
<g id="edge79" class="edge"><title>MainFrame&#45;&gt;MainFrame$$Multi_Directory</title>
<path fill="none" stroke="red" d="M505.58,-465.88C439.743,-462.559 329.997,-455.212 292,-443 204.982,-415.034 167.538,-414.08 114,-340 85.614,-300.723 82.0463,-277.398 99,-232 103.055,-221.142 110.449,-211.034 118.601,-202.62"/>
<polygon fill="red" stroke="red" points="121.061,-205.111 125.897,-195.684 116.238,-200.038 121.061,-205.111"/>
</g>
<!-- MainFrame$$Normal_View -->
<g id="node27" class="node"><title>MainFrame$$Normal_View</title>
<ellipse fill="none" stroke="red" cx="812" cy="-322" rx="110.48" ry="18"/>
<text text-anchor="middle" x="812" y="-318.3" font-family="Times New Roman,serif" font-size="14.00">MainFrame$$Normal_View</text>
</g>
<!-- MainFrame&#45;&gt;MainFrame$$Normal_View -->
<g id="edge78" class="edge"><title>MainFrame&#45;&gt;MainFrame$$Normal_View</title>
<path fill="none" stroke="red" d="M608.913,-466.879C637.279,-464.369 672.189,-458.066 700,-443 741.603,-420.463 776.352,-376.683 795.639,-348.695"/>
<polygon fill="red" stroke="red" points="798.669,-350.461 801.346,-340.21 792.861,-346.554 798.669,-350.461"/>
</g>
<!-- MainFrame$$Query_History -->
<g id="node28" class="node"><title>MainFrame$$Query_History</title>
<ellipse fill="none" stroke="red" cx="266" cy="-250" rx="114.28" ry="18"/>
<text text-anchor="middle" x="266" y="-246.3" font-family="Times New Roman,serif" font-size="14.00">MainFrame$$Query_History</text>
</g>
<!-- MainFrame&#45;&gt;MainFrame$$Query_History -->
<g id="edge82" class="edge"><title>MainFrame&#45;&gt;MainFrame$$Query_History</title>
<path fill="none" stroke="red" d="M508.591,-462.147C460.817,-456.159 394.285,-447.161 390,-443 344.969,-399.272 401.91,-354.77 365,-304 354.555,-289.632 339.003,-278.777 323.303,-270.756"/>
<polygon fill="red" stroke="red" points="324.613,-267.503 314.08,-266.355 321.598,-273.82 324.613,-267.503"/>
</g>
<!-- MainFrame&#45;&gt;MainFrame$$Single_Directory -->
<g id="edge73" class="edge"><title>MainFrame&#45;&gt;MainFrame$$Single_Directory</title>
<path fill="none" stroke="red" d="M507.098,-463.746C462.381,-459.123 403.031,-451.282 396,-443 376.728,-420.3 391.047,-405.363 396,-376 401.634,-342.598 402.533,-332.398 421,-304 446.542,-264.722 461.863,-261.82 498,-232 510.882,-221.37 525.699,-210.399 539.254,-201.216"/>
<polygon fill="red" stroke="red" points="541.54,-203.9 547.947,-195.461 537.676,-198.063 541.54,-203.9"/>
</g>
<!-- MainFrame$$Tree_View -->
<g id="node30" class="node"><title>MainFrame$$Tree_View</title>
<ellipse fill="none" stroke="red" cx="515" cy="-394" rx="100.983" ry="18"/>
<text text-anchor="middle" x="515" y="-390.3" font-family="Times New Roman,serif" font-size="14.00">MainFrame$$Tree_View</text>
</g>
<!-- MainFrame&#45;&gt;MainFrame$$Tree_View -->
<g id="edge77" class="edge"><title>MainFrame&#45;&gt;MainFrame$$Tree_View</title>
<path fill="none" stroke="red" d="M547.259,-451.069C542.101,-442.104 535.657,-430.903 529.887,-420.875"/>
<polygon fill="red" stroke="red" points="532.855,-419.015 524.834,-412.092 526.787,-422.505 532.855,-419.015"/>
</g>
<!-- MainFrame&#45;&gt;MrPinkMain -->
<g id="edge74" class="edge"><title>MainFrame&#45;&gt;MrPinkMain</title>
<path fill="none" stroke="red" d="M608.911,-466.586C746.608,-462.724 1112.35,-451.708 1137,-443 1152.01,-437.698 1166.48,-427.667 1177.94,-418.141"/>
<polygon fill="red" stroke="red" points="1180.48,-420.574 1185.72,-411.368 1175.88,-415.294 1180.48,-420.574"/>
</g>
<!-- NoDocument -->
<g id="node35" class="node"><title>NoDocument</title>
<ellipse fill="none" stroke="red" cx="780" cy="-250" rx="59.5901" ry="18"/>
<text text-anchor="middle" x="780" y="-246.3" font-family="Times New Roman,serif" font-size="14.00">NoDocument</text>
</g>
<!-- MainFrame&#45;&gt;NoDocument -->
<g id="edge75" class="edge"><title>MainFrame&#45;&gt;NoDocument</title>
<path fill="none" stroke="red" d="M607.488,-464.078C622.336,-460.531 637.417,-454.188 648,-443 691.431,-397.087 639.648,-354.233 678,-304 690.846,-287.174 710.56,-275.192 729.244,-266.929"/>
<polygon fill="red" stroke="red" points="730.691,-270.118 738.588,-263.054 728.01,-263.652 730.691,-270.118"/>
</g>
<!-- SearchResultTree -->
<g id="node40" class="node"><title>SearchResultTree</title>
<ellipse fill="none" stroke="red" cx="549" cy="-322" rx="75.2868" ry="18"/>
<text text-anchor="middle" x="549" y="-318.3" font-family="Times New Roman,serif" font-size="14.00">SearchResultTree</text>
</g>
<!-- MainFrame&#45;&gt;SearchResultTree -->
<g id="edge80" class="edge"><title>MainFrame&#45;&gt;SearchResultTree</title>
<path fill="none" stroke="red" d="M602.466,-459.929C611.314,-456.228 619.53,-450.839 625,-443 642.04,-418.58 638.775,-402.4 625,-376 617.926,-362.443 605.626,-351.646 592.957,-343.429"/>
<polygon fill="red" stroke="red" points="594.559,-340.308 584.186,-338.15 590.949,-346.306 594.559,-340.308"/>
</g>
<!-- MainFrame$$GUI&#45;&gt;ButtonListener -->
<g id="edge83" class="edge"><title>MainFrame$$GUI&#45;&gt;ButtonListener</title>
<path fill="none" stroke="red" d="M851.23,-108.938C641.214,-114.511 65.5293,-131.998 36,-160 7.11715,-187.389 26,-209.196 26,-249 26,-614 26,-614 26,-614 26,-654.447 24.4519,-668.161 45,-703 51.7375,-714.423 61.8168,-724.637 71.3981,-732.977"/>
<polygon fill="red" stroke="red" points="69.3251,-735.805 79.2449,-739.527 73.8109,-730.432 69.3251,-735.805"/>
</g>
<!-- MainFrame$$GUI&#45;&gt;Indexer -->
<g id="edge84" class="edge"><title>MainFrame$$GUI&#45;&gt;Indexer</title>
<path fill="none" stroke="red" d="M992.455,-115.501C1102.81,-129.833 1323.25,-158.461 1419.37,-170.945"/>
<polygon fill="red" stroke="red" points="1419.01,-174.427 1429.38,-172.244 1419.91,-167.485 1419.01,-174.427"/>
</g>
<!-- MainFrame$$GUI&#45;&gt;MainFrame -->
<g id="edge85" class="edge"><title>MainFrame$$GUI&#45;&gt;MainFrame</title>
<path fill="none" stroke="red" d="M935.09,-124.066C938.392,-142.755 937.588,-173.111 926,-196 915.346,-217.046 903.109,-214.768 887,-232 872.969,-247.009 875.41,-257.091 858,-268 797.703,-305.781 751.955,-253.329 702,-304 679.815,-326.503 694.131,-420.444 672,-443 664.028,-451.126 640.105,-457.138 616.063,-461.228"/>
<polygon fill="red" stroke="red" points="615.483,-457.776 606.16,-462.809 616.587,-464.688 615.483,-457.776"/>
</g>
<!-- MainFrame$$GUI&#45;&gt;MrPinkMain -->
<g id="edge86" class="edge"><title>MainFrame$$GUI&#45;&gt;MrPinkMain</title>
<path fill="none" stroke="red" d="M986.289,-117.482C1143.84,-145.468 1561.6,-220.597 1571,-232 1601.54,-269.034 1602.44,-303.726 1571,-340 1532.61,-384.299 1363.78,-392.443 1268.34,-393.418"/>
<polygon fill="red" stroke="red" points="1268.18,-389.919 1258.21,-393.498 1268.24,-396.919 1268.18,-389.919"/>
</g>
<!-- MainFrame$$GUI&#45;&gt;OptionStorage -->
<g id="edge87" class="edge"><title>MainFrame$$GUI&#45;&gt;OptionStorage</title>
<path fill="none" stroke="red" d="M950.199,-123.225C980.309,-143.481 1035.15,-177.687 1087,-196 1175.46,-227.244 1203.05,-213.353 1295,-232 1300.34,-233.083 1305.89,-234.267 1311.43,-235.489"/>
<polygon fill="red" stroke="red" points="1310.83,-238.942 1321.36,-237.717 1312.36,-232.112 1310.83,-238.942"/>
</g>
<!-- MainFrame$$GUI&#45;&gt;UI -->
<g id="edge88" class="edge"><title>MainFrame$$GUI&#45;&gt;UI</title>
<path fill="none" stroke="red" d="M965.532,-121.624C992.837,-132.082 1030.28,-146.618 1063,-160 1100.59,-175.376 1107.78,-185.426 1147,-196 1274.1,-230.271 1314.54,-195.429 1441,-232 1442.94,-232.562 1444.91,-233.217 1446.87,-233.937"/>
<polygon fill="red" stroke="red" points="1445.92,-237.333 1456.5,-237.945 1448.61,-230.87 1445.92,-237.333"/>
</g>
<!-- MainFrame$$Index_History&#45;&gt;MainFrame$$Multi_Directory -->
<g id="edge91" class="edge"><title>MainFrame$$Index_History&#45;&gt;MainFrame$$Multi_Directory</title>
<path fill="none" stroke="red" d="M191.263,-306.006C172.681,-297.907 153.757,-285.793 143,-268 131.666,-249.253 136.115,-224.226 142.42,-205.487"/>
<polygon fill="red" stroke="red" points="145.719,-206.658 145.919,-196.065 139.157,-204.221 145.719,-206.658"/>
</g>
<!-- MainFrame$$Index_History&#45;&gt;MainFrame$$Query_History -->
<g id="edge89" class="edge"><title>MainFrame$$Index_History&#45;&gt;MainFrame$$Query_History</title>
<path fill="none" stroke="red" d="M249.438,-303.697C251.889,-295.898 254.84,-286.509 257.568,-277.829"/>
<polygon fill="red" stroke="red" points="260.965,-278.694 260.624,-268.104 254.287,-276.595 260.965,-278.694"/>
</g>
<!-- MainFrame$$Index_History&#45;&gt;MrPinkMain -->
<g id="edge90" class="edge"><title>MainFrame$$Index_History&#45;&gt;MrPinkMain</title>
<path fill="none" stroke="red" d="M341.605,-330.999C380.045,-334.021 424.584,-337.363 465,-340 763.46,-359.471 841.475,-329.925 1137,-376 1142.06,-376.788 1147.29,-377.806 1152.49,-378.951"/>
<polygon fill="red" stroke="red" points="1151.86,-382.398 1162.39,-381.283 1153.46,-375.584 1151.86,-382.398"/>
</g>
<!-- MainFrame$$Multi_Directory&#45;&gt;ButtonListener -->
<g id="edge92" class="edge"><title>MainFrame$$Multi_Directory&#45;&gt;ButtonListener</title>
<path fill="none" stroke="red" d="M132.398,-195.863C100.674,-219.269 46,-265.1 46,-321 46,-614 46,-614 46,-614 46,-654.113 44.0791,-666.63 61,-703 65.7353,-713.178 72.9689,-722.956 79.8292,-731.281"/>
<polygon fill="red" stroke="red" points="77.3162,-733.728 86.4587,-739.082 82.6504,-729.196 77.3162,-733.728"/>
</g>
<!-- MainFrame$$Multi_Directory&#45;&gt;MainFrame -->
<g id="edge93" class="edge"><title>MainFrame$$Multi_Directory&#45;&gt;MainFrame</title>
<path fill="none" stroke="red" d="M141.684,-195.916C132.891,-205.385 122.2,-218.075 117,-232 100.046,-277.398 103.614,-300.723 132,-340 185.538,-414.08 222.982,-415.034 310,-443 343.778,-453.856 434.257,-460.867 495.88,-464.624"/>
<polygon fill="red" stroke="red" points="495.698,-468.119 505.889,-465.221 496.115,-461.132 495.698,-468.119"/>
</g>
<!-- MainFrame$$Multi_Directory&#45;&gt;MainFrame$$GUI -->
<g id="edge94" class="edge"><title>MainFrame$$Multi_Directory&#45;&gt;MainFrame$$GUI</title>
<path fill="none" stroke="red" d="M239.142,-165.456C254.715,-163.509 270.835,-161.603 286,-160 486.088,-138.855 722.065,-121.219 844.286,-112.628"/>
<polygon fill="red" stroke="red" points="844.59,-116.116 854.321,-111.925 844.101,-109.133 844.59,-116.116"/>
</g>
<!-- MainFrame$$Multi_Directory&#45;&gt;MrPinkMain -->
<g id="edge95" class="edge"><title>MainFrame$$Multi_Directory&#45;&gt;MrPinkMain</title>
<path fill="none" stroke="red" d="M240.942,-190.3C260.659,-192.515 281.526,-194.587 301,-196 368.186,-200.874 1466.08,-183.665 1513,-232 1546.43,-266.441 1543.96,-303.319 1513,-340 1482.26,-376.427 1349.55,-387.82 1267.75,-391.382"/>
<polygon fill="red" stroke="red" points="1267.39,-387.894 1257.54,-391.798 1267.67,-394.888 1267.39,-387.894"/>
</g>
<!-- MainFrame$$Normal_View&#45;&gt;HitDocument -->
<g id="edge96" class="edge"><title>MainFrame$$Normal_View&#45;&gt;HitDocument</title>
<path fill="none" stroke="red" d="M773.651,-305.116C747.631,-294.338 713.188,-280.072 686.199,-268.893"/>
<polygon fill="red" stroke="red" points="687.201,-265.52 676.623,-264.927 684.522,-271.987 687.201,-265.52"/>
</g>
<!-- MainFrame$$Normal_View&#45;&gt;Indexer -->
<g id="edge97" class="edge"><title>MainFrame$$Normal_View&#45;&gt;Indexer</title>
<path fill="none" stroke="red" d="M852.452,-305.219C877.608,-295.135 910.482,-281.465 939,-268 969.923,-253.4 974.34,-242.136 1007,-232 1151.52,-187.149 1332.27,-179.619 1417.39,-178.761"/>
<polygon fill="red" stroke="red" points="1417.56,-182.26 1427.54,-178.687 1417.51,-175.26 1417.56,-182.26"/>
</g>
<!-- MainFrame$$Normal_View&#45;&gt;MainFrame$$GUI -->
<g id="edge98" class="edge"><title>MainFrame$$Normal_View&#45;&gt;MainFrame$$GUI</title>
<path fill="none" stroke="red" d="M836.809,-304.408C865.983,-283.232 912.856,-243.585 932,-196 939.919,-176.317 937.922,-152.191 934.359,-134.026"/>
<polygon fill="red" stroke="red" points="937.738,-133.096 932.143,-124.099 930.906,-134.621 937.738,-133.096"/>
</g>
<!-- MainFrame$$Normal_View&#45;&gt;MainFrame$$Single_Directory -->
<g id="edge99" class="edge"><title>MainFrame$$Normal_View&#45;&gt;MainFrame$$Single_Directory</title>
<path fill="none" stroke="red" d="M828.742,-304.035C845.595,-284.883 866.748,-253.586 849,-232 837.812,-218.393 749.611,-202.8 677.207,-192.068"/>
<polygon fill="red" stroke="red" points="677.506,-188.575 667.104,-190.587 676.491,-195.501 677.506,-188.575"/>
</g>
<!-- MainFrame$$Normal_View&#45;&gt;MrPinkMain -->
<g id="edge100" class="edge"><title>MainFrame$$Normal_View&#45;&gt;MrPinkMain</title>
<path fill="none" stroke="red" d="M893.87,-334.172C959.828,-343.695 1054.79,-358.586 1137,-376 1141.61,-376.976 1146.38,-378.067 1151.15,-379.212"/>
<polygon fill="red" stroke="red" points="1150.33,-382.615 1160.88,-381.62 1152.01,-375.82 1150.33,-382.615"/>
</g>
<!-- MainFrame$$Normal_View&#45;&gt;NoDocument -->
<g id="edge101" class="edge"><title>MainFrame$$Normal_View&#45;&gt;NoDocument</title>
<path fill="none" stroke="red" d="M804.09,-303.697C800.447,-295.728 796.046,-286.1 792.006,-277.264"/>
<polygon fill="red" stroke="red" points="795.16,-275.744 787.819,-268.104 788.794,-278.654 795.16,-275.744"/>
</g>
<!-- MainFrame$$Query_History&#45;&gt;History_Query -->
<g id="edge102" class="edge"><title>MainFrame$$Query_History&#45;&gt;History_Query</title>
<path fill="none" stroke="red" d="M291.831,-232.411C306.811,-222.791 325.829,-210.578 341.898,-200.258"/>
<polygon fill="red" stroke="red" points="343.954,-203.098 350.477,-194.749 340.171,-197.208 343.954,-203.098"/>
</g>
<!-- MainFrame$$Query_History&#45;&gt;MainFrame$$GUI -->
<g id="edge103" class="edge"><title>MainFrame$$Query_History&#45;&gt;MainFrame$$GUI</title>
<path fill="none" stroke="red" d="M270.467,-231.707C276.858,-208.408 289.15,-168.828 301,-160 343.312,-128.478 679.313,-114.328 840.851,-109.298"/>
<polygon fill="red" stroke="red" points="841.346,-112.785 851.234,-108.98 841.131,-105.788 841.346,-112.785"/>
</g>
<!-- MainFrame$$Query_History&#45;&gt;MainFrame$$Multi_Directory -->
<g id="edge104" class="edge"><title>MainFrame$$Query_History&#45;&gt;MainFrame$$Multi_Directory</title>
<path fill="none" stroke="red" d="M239.458,-232.411C224.503,-223.064 205.63,-211.268 189.426,-201.141"/>
<polygon fill="red" stroke="red" points="191.075,-198.045 180.74,-195.713 187.365,-203.981 191.075,-198.045"/>
</g>
<!-- MainFrame$$Query_History&#45;&gt;MainFrame$$Single_Directory -->
<g id="edge106" class="edge"><title>MainFrame$$Query_History&#45;&gt;MainFrame$$Single_Directory</title>
<path fill="none" stroke="red" d="M329.165,-234.919C380.249,-223.53 452.268,-207.475 506.04,-195.488"/>
<polygon fill="red" stroke="red" points="506.86,-198.891 515.859,-193.299 505.337,-192.059 506.86,-198.891"/>
</g>
<!-- MainFrame$$Query_History&#45;&gt;MrPinkMain -->
<g id="edge105" class="edge"><title>MainFrame$$Query_History&#45;&gt;MrPinkMain</title>
<path fill="none" stroke="red" d="M373.023,-256.428C533.141,-265.077 827.319,-283.153 931,-304 1013.95,-320.679 1106.9,-354.741 1159.54,-375.552"/>
<polygon fill="red" stroke="red" points="1158.31,-378.827 1168.89,-379.276 1160.9,-372.324 1158.31,-378.827"/>
</g>
<!-- MainFrame$$Single_Directory&#45;&gt;ButtonListener -->
<g id="edge107" class="edge"><title>MainFrame$$Single_Directory&#45;&gt;ButtonListener</title>
<path fill="none" stroke="red" d="M516.646,-193.407C487.956,-201.57 454.648,-213.885 428,-232 410.776,-243.709 416.225,-257.918 398,-268 293.608,-325.748 232.222,-239.285 132,-304 65.9947,-346.621 66,-389.43 66,-468 66,-614 66,-614 66,-614 66,-654.271 71.1343,-664.517 83,-703 85.6895,-711.722 89.3731,-720.941 92.6001,-729.2"/>
<polygon fill="red" stroke="red" points="89.3871,-730.598 96.2122,-738.702 95.9302,-728.111 89.3871,-730.598"/>
</g>
<!-- MainFrame$$Single_Directory&#45;&gt;MainFrame -->
<g id="edge108" class="edge"><title>MainFrame$$Single_Directory&#45;&gt;MainFrame</title>
<path fill="none" stroke="red" d="M562.972,-195.931C549.712,-205.991 531.462,-219.241 516,-232 479.863,-261.82 464.542,-264.722 439,-304 420.533,-332.398 419.634,-342.598 414,-376 409.047,-405.363 394.728,-420.3 414,-443 419.814,-449.848 461.399,-456.395 498.302,-461.07"/>
<polygon fill="red" stroke="red" points="498.199,-464.584 508.553,-462.338 499.058,-457.637 498.199,-464.584"/>
</g>
<!-- MainFrame$$Single_Directory&#45;&gt;MainFrame$$GUI -->
<g id="edge109" class="edge"><title>MainFrame$$Single_Directory&#45;&gt;MainFrame$$GUI</title>
<path fill="none" stroke="red" d="M648.971,-163.087C710.568,-150.661 800.189,-132.581 860.896,-120.335"/>
<polygon fill="red" stroke="red" points="861.646,-123.754 870.756,-118.346 860.262,-116.893 861.646,-123.754"/>
</g>
<!-- MainFrame$$Single_Directory&#45;&gt;MrPinkMain -->
<g id="edge110" class="edge"><title>MainFrame$$Single_Directory&#45;&gt;MrPinkMain</title>
<path fill="none" stroke="red" d="M670.131,-190.162C690.147,-192.357 711.275,-194.456 731,-196 776.184,-199.537 1514.67,-199.253 1546,-232 1579.18,-266.682 1577.25,-303.566 1546,-340 1510.91,-380.907 1357.71,-390.539 1268.03,-392.62"/>
<polygon fill="red" stroke="red" points="1267.88,-389.122 1257.95,-392.828 1268.02,-396.12 1267.88,-389.122"/>
</g>
<!-- MainFrame$$Tree_View&#45;&gt;HitDocument -->
<g id="edge111" class="edge"><title>MainFrame$$Tree_View&#45;&gt;HitDocument</title>
<path fill="none" stroke="red" d="M493.912,-376.144C473.344,-357.639 447.52,-327.443 465,-304 479.23,-284.915 536.268,-270.213 581.994,-261.188"/>
<polygon fill="red" stroke="red" points="582.695,-264.617 591.855,-259.293 581.375,-257.743 582.695,-264.617"/>
</g>
<!-- MainFrame$$Tree_View&#45;&gt;Indexer -->
<g id="edge112" class="edge"><title>MainFrame$$Tree_View&#45;&gt;Indexer</title>
<path fill="none" stroke="red" d="M615.91,-392.739C702.067,-389.591 828.018,-377.959 931,-340 1013.24,-309.688 1014,-262.951 1096,-232 1205.8,-190.556 1345.12,-181.218 1417.46,-179.306"/>
<polygon fill="red" stroke="red" points="1417.71,-182.801 1427.63,-179.075 1417.56,-175.803 1417.71,-182.801"/>
</g>
<!-- MainFrame$$Tree_View&#45;&gt;MainFrame$$GUI -->
<g id="edge113" class="edge"><title>MainFrame$$Tree_View&#45;&gt;MainFrame$$GUI</title>
<path fill="none" stroke="red" d="M488.127,-376.567C475.891,-367.469 462.673,-354.965 456,-340 449.484,-325.387 448.143,-317.938 456,-304 471.179,-277.076 546.549,-244.077 575,-232 632.555,-207.568 661.652,-234.397 711,-196 725.446,-184.76 716.584,-171.278 731,-160 763.621,-134.478 807.588,-121.219 845.613,-114.343"/>
<polygon fill="red" stroke="red" points="846.374,-117.764 855.652,-112.648 845.209,-110.862 846.374,-117.764"/>
</g>
<!-- MainFrame$$Tree_View&#45;&gt;MainFrame$$Index_History -->
<g id="edge114" class="edge"><title>MainFrame$$Tree_View&#45;&gt;MainFrame$$Index_History</title>
<path fill="none" stroke="red" d="M460.159,-378.834C416.932,-367.669 356.486,-352.055 310.501,-340.177"/>
<polygon fill="red" stroke="red" points="311.182,-336.739 300.625,-337.626 309.432,-343.516 311.182,-336.739"/>
</g>
<!-- MainFrame$$Tree_View&#45;&gt;MrPinkMain -->
<g id="edge115" class="edge"><title>MainFrame$$Tree_View&#45;&gt;MrPinkMain</title>
<path fill="none" stroke="red" d="M597.719,-404.363C706.178,-417.381 902.471,-438.986 1071,-447 1096.3,-448.203 1103.22,-452.259 1128,-447 1132.28,-446.091 1133.23,-445.221 1137,-443 1149.71,-435.516 1162.87,-425.987 1173.99,-417.327"/>
<polygon fill="red" stroke="red" points="1176.4,-419.881 1182.05,-410.921 1172.05,-414.399 1176.4,-419.881"/>
</g>
<!-- MainFrame$$Tree_View&#45;&gt;SearchResultTree -->
<g id="edge116" class="edge"><title>MainFrame$$Tree_View&#45;&gt;SearchResultTree</title>
<path fill="none" stroke="red" d="M523.23,-376.055C527.098,-368.091 531.8,-358.411 536.124,-349.51"/>
<polygon fill="red" stroke="red" points="539.388,-350.8 540.609,-340.275 533.092,-347.741 539.388,-350.8"/>
</g>
<!-- MrPinkMain&#45;&gt;Commandline -->
<g id="edge120" class="edge"><title>MrPinkMain&#45;&gt;Commandline</title>
<path fill="none" stroke="red" d="M1257.14,-397.282C1354.75,-403.736 1560.96,-428.441 1702,-523 1739.85,-548.377 1757.42,-552.959 1775,-595 1793.66,-639.602 1798.54,-671.347 1762,-703 1719.31,-739.978 801.952,-731.296 746,-739 740.502,-739.757 734.807,-740.762 729.149,-741.907"/>
<polygon fill="red" stroke="red" points="728.084,-738.557 719.052,-744.095 729.567,-745.398 728.084,-738.557"/>
</g>
<!-- MrPinkMain&#45;&gt;Indexer -->
<g id="edge117" class="edge"><title>MrPinkMain&#45;&gt;Indexer</title>
<path fill="none" stroke="blue" d="M1157.63,-382.957C1134.7,-375.275 1108.72,-362.105 1095,-340 1079.45,-314.949 1108.83,-235.789 1113,-232 1156.8,-192.209 1331.72,-182.291 1417.74,-179.82"/>
<polygon fill="blue" stroke="blue" points="1417.87,-183.317 1427.77,-179.554 1417.68,-176.32 1417.87,-183.317"/>
</g>
<!-- MrPinkMain$$Base -->
<g id="node32" class="node"><title>MrPinkMain$$Base</title>
<ellipse fill="none" stroke="blue" cx="1204" cy="-250" rx="81.7856" ry="18"/>
<text text-anchor="middle" x="1204" y="-246.3" font-family="Times New Roman,serif" font-size="14.00">MrPinkMain$$Base</text>
</g>
<!-- MrPinkMain&#45;&gt;MrPinkMain$$Base -->
<g id="edge118" class="edge"><title>MrPinkMain&#45;&gt;MrPinkMain$$Base</title>
<path fill="none" stroke="blue" d="M1157.36,-383.166C1134.5,-375.298 1108.97,-361.869 1096,-340 1087.84,-326.239 1087.78,-317.726 1096,-304 1105.94,-287.407 1123.04,-275.716 1140.79,-267.618"/>
<polygon fill="blue" stroke="blue" points="1142.23,-270.808 1150.09,-263.704 1139.52,-264.356 1142.23,-270.808"/>
</g>
<!-- MrPinkMain$$GUI -->
<g id="node33" class="node"><title>MrPinkMain$$GUI</title>
<ellipse fill="none" stroke="red" cx="969" cy="-541" rx="80.6858" ry="18"/>
<text text-anchor="middle" x="969" y="-537.3" font-family="Times New Roman,serif" font-size="14.00">MrPinkMain$$GUI</text>
</g>
<!-- MrPinkMain&#45;&gt;MrPinkMain$$GUI -->
<g id="edge119" class="edge"><title>MrPinkMain&#45;&gt;MrPinkMain$$GUI</title>
<path fill="none" stroke="red" d="M1184.35,-411.085C1162.26,-430.678 1122.73,-464 1085,-487 1063.51,-500.101 1038.23,-512.018 1016.77,-521.219"/>
<polygon fill="red" stroke="red" points="1015.37,-518.01 1007.51,-525.12 1018.09,-524.46 1015.37,-518.01"/>
</g>
<!-- MrPinkMain$$User_Interface -->
<g id="node34" class="node"><title>MrPinkMain$$User_Interface</title>
<ellipse fill="none" stroke="blue" cx="1232" cy="-322" rx="118.079" ry="18"/>
<text text-anchor="middle" x="1232" y="-318.3" font-family="Times New Roman,serif" font-size="14.00">MrPinkMain$$User_Interface</text>
</g>
<!-- MrPinkMain&#45;&gt;MrPinkMain$$User_Interface -->
<g id="edge121" class="edge"><title>MrPinkMain&#45;&gt;MrPinkMain$$User_Interface</title>
<path fill="none" stroke="red" d="M1209.26,-376.055C1212.68,-368.091 1216.82,-358.411 1220.64,-349.51"/>
<polygon fill="red" stroke="red" points="1223.87,-350.845 1224.6,-340.275 1217.44,-348.088 1223.87,-350.845"/>
</g>
<!-- MrPinkMain$$Base&#45;&gt;Indexer -->
<g id="edge122" class="edge"><title>MrPinkMain$$Base&#45;&gt;Indexer</title>
<path fill="none" stroke="blue" d="M1253.9,-235.669C1303,-222.549 1377.17,-202.733 1423.53,-190.346"/>
<polygon fill="blue" stroke="blue" points="1424.51,-193.708 1433.27,-187.745 1422.7,-186.945 1424.51,-193.708"/>
</g>
<!-- MrPinkMain$$Base&#45;&gt;MrPinkMain -->
<g id="edge123" class="edge"><title>MrPinkMain$$Base&#45;&gt;MrPinkMain</title>
<path fill="none" stroke="blue" d="M1162.16,-265.549C1144.13,-273.682 1124.82,-285.937 1114,-304 1105.78,-317.726 1105.84,-326.239 1114,-340 1123.57,-356.143 1139.99,-367.687 1156.12,-375.79"/>
<polygon fill="blue" stroke="blue" points="1154.99,-379.124 1165.53,-380.172 1157.95,-372.778 1154.99,-379.124"/>
</g>
<!-- MrPinkMain$$GUI&#45;&gt;MainFrame -->
<g id="edge124" class="edge"><title>MrPinkMain$$GUI&#45;&gt;MainFrame</title>
<path fill="none" stroke="red" d="M906.873,-529.445C826.95,-515.865 689.315,-492.481 612.659,-479.457"/>
<polygon fill="red" stroke="red" points="613.159,-475.991 602.714,-477.767 611.986,-482.893 613.159,-475.991"/>
</g>
<!-- MrPinkMain$$GUI&#45;&gt;MrPinkMain -->
<g id="edge125" class="edge"><title>MrPinkMain$$GUI&#45;&gt;MrPinkMain</title>
<path fill="none" stroke="red" d="M985.302,-523.079C1006.29,-502.427 1044.85,-468.144 1085,-451 1106.5,-441.818 1115.41,-451.984 1137,-443 1151.49,-436.971 1165.72,-427.048 1177.16,-417.783"/>
<polygon fill="red" stroke="red" points="1179.56,-420.336 1184.96,-411.219 1175.06,-414.981 1179.56,-420.336"/>
</g>
<!-- MrPinkMain$$GUI&#45;&gt;MrPinkMain$$Base -->
<g id="edge126" class="edge"><title>MrPinkMain$$GUI&#45;&gt;MrPinkMain$$Base</title>
<path fill="none" stroke="red" d="M1049.54,-539.57C1176.84,-533.854 1419.67,-501.215 1513,-340 1521.02,-326.153 1523.35,-316.201 1513,-304 1481.23,-266.559 1343.36,-276.509 1295,-268 1288.04,-266.775 1280.78,-265.468 1273.53,-264.145"/>
<polygon fill="red" stroke="red" points="1274.15,-260.701 1263.69,-262.336 1272.89,-267.586 1274.15,-260.701"/>
</g>
<!-- MrPinkMain$$GUI&#45;&gt;MrPinkMain$$User_Interface -->
<g id="edge127" class="edge"><title>MrPinkMain$$GUI&#45;&gt;MrPinkMain$$User_Interface</title>
<path fill="none" stroke="red" d="M1049.1,-538.424C1119.29,-532.268 1217.61,-511.019 1267,-443 1284.5,-418.905 1275.57,-404.519 1267,-376 1264.08,-366.281 1258.74,-356.7 1253.09,-348.415"/>
<polygon fill="red" stroke="red" points="1255.9,-346.324 1247.18,-340.297 1250.24,-350.442 1255.9,-346.324"/>
</g>
<!-- MrPinkMain$$User_Interface&#45;&gt;IndexerException -->
<g id="edge128" class="edge"><title>MrPinkMain$$User_Interface&#45;&gt;IndexerException</title>
<path fill="none" stroke="blue" d="M1166.7,-306.956C1145.96,-299.082 1125.25,-286.873 1113,-268 1104.29,-254.581 1107.58,-247.054 1113,-232 1139.75,-157.72 1208,-91.5674 1247.18,-58.1007"/>
<polygon fill="blue" stroke="blue" points="1249.67,-60.5783 1255.07,-51.4642 1245.17,-55.2203 1249.67,-60.5783"/>
</g>
<!-- MrPinkMain$$User_Interface&#45;&gt;MrPinkMain$$Base -->
<g id="edge129" class="edge"><title>MrPinkMain$$User_Interface&#45;&gt;MrPinkMain$$Base</title>
<path fill="none" stroke="blue" d="M1225.08,-303.697C1221.93,-295.813 1218.12,-286.304 1214.62,-277.546"/>
<polygon fill="blue" stroke="blue" points="1217.81,-276.089 1210.84,-268.104 1211.31,-278.689 1217.81,-276.089"/>
</g>
<!-- MrPinkMain$$User_Interface&#45;&gt;OptionStorage -->
<g id="edge130" class="edge"><title>MrPinkMain$$User_Interface&#45;&gt;OptionStorage</title>
<path fill="none" stroke="blue" d="M1263.89,-304.588C1283.49,-294.496 1308.75,-281.498 1329.47,-270.832"/>
<polygon fill="blue" stroke="blue" points="1331.35,-273.802 1338.64,-266.114 1328.14,-267.578 1331.35,-273.802"/>
</g>
<!-- MrPinkMain$$User_Interface&#45;&gt;UI -->
<g id="edge131" class="edge"><title>MrPinkMain$$User_Interface&#45;&gt;UI</title>
<path fill="none" stroke="blue" d="M1300.29,-307.18C1341.61,-297.96 1395.02,-284.51 1441,-268 1442.85,-267.334 1444.74,-266.606 1446.63,-265.837"/>
<polygon fill="blue" stroke="blue" points="1448.2,-268.97 1455.97,-261.762 1445.4,-262.555 1448.2,-268.97"/>
</g>
<!-- NoDocument&#45;&gt;HitComponentLabel -->
<g id="edge132" class="edge"><title>NoDocument&#45;&gt;HitComponentLabel</title>
<path fill="none" stroke="red" d="M790.651,-232.055C795.763,-223.922 802.001,-213.998 807.693,-204.943"/>
<polygon fill="red" stroke="red" points="810.783,-206.604 813.141,-196.275 804.856,-202.879 810.783,-206.604"/>
</g>
<!-- OptionWindow&#45;&gt;OptionStorage -->
<g id="edge133" class="edge"><title>OptionWindow&#45;&gt;OptionStorage</title>
<path fill="none" stroke="blue" d="M1419.88,-304.411C1411.33,-295.606 1400.67,-284.628 1391.24,-274.919"/>
<polygon fill="blue" stroke="blue" points="1393.48,-272.204 1384,-267.47 1388.46,-277.082 1393.48,-272.204"/>
</g>
<!-- Plain&#45;&gt;ContentHandler -->
<g id="edge134" class="edge"><title>Plain&#45;&gt;ContentHandler</title>
<path fill="none" stroke="red" d="M1049.73,-683.906C1234.53,-683.167 2252.41,-677.018 2382,-631 2407.13,-622.077 2407.57,-609.422 2430,-595 2458.1,-576.929 2469.74,-579.665 2496,-559 2607.26,-471.43 2710,-464.59 2710,-323 2710,-323 2710,-323 2710,-177 2710,-132.589 2720.47,-107.998 2686,-80 2640.44,-42.9961 1780.01,-36.3983 1513.81,-35.2415"/>
<polygon fill="red" stroke="red" points="1513.48,-31.7401 1503.46,-35.198 1513.45,-38.7401 1513.48,-31.7401"/>
</g>
<!-- SearchResultTree&#45;&gt;HitDocument -->
<g id="edge135" class="edge"><title>SearchResultTree&#45;&gt;HitDocument</title>
<path fill="none" stroke="red" d="M570.802,-304.765C583.467,-295.333 599.599,-283.32 613.4,-273.042"/>
<polygon fill="red" stroke="red" points="615.711,-275.686 621.641,-266.906 611.53,-270.072 615.711,-275.686"/>
</g>
<!-- SearchResultTree&#45;&gt;OS -->
<g id="edge136" class="edge"><title>SearchResultTree&#45;&gt;OS</title>
<path fill="none" stroke="red" d="M614.56,-331.024C639.15,-333.958 667.346,-337.235 693,-340 856.83,-357.66 902.515,-334.569 1062,-376 1064.81,-376.731 1067.69,-377.64 1070.53,-378.654"/>
<polygon fill="red" stroke="red" points="1069.39,-381.966 1079.97,-382.402 1071.97,-375.459 1069.39,-381.966"/>
</g>
<!-- UI&#45;&gt;Indexer -->
<g id="edge137" class="edge"><title>UI&#45;&gt;Indexer</title>
<path fill="none" stroke="blue" d="M1474.34,-232.055C1473.13,-224.346 1471.66,-215.027 1470.3,-206.364"/>
<polygon fill="blue" stroke="blue" points="1473.72,-205.611 1468.71,-196.275 1466.81,-206.697 1473.72,-205.611"/>
</g>
</g>
</svg>
