<?xml version="1.0" encoding="UTF-8" standalone="no"?>
<!DOCTYPE svg PUBLIC "-//W3C//DTD SVG 1.1//EN"
 "http://www.w3.org/Graphics/SVG/1.1/DTD/svg11.dtd">
<!-- Generated by graphviz version 2.38.0 (20140413.2041)
 -->
<!-- Title: G Pages: 1 -->
<svg width="1080pt" height="333pt"
 viewBox="0.00 0.00 1080.00 332.64" xmlns="http://www.w3.org/2000/svg" xmlns:xlink="http://www.w3.org/1999/xlink">
<g id="graph0" class="graph" transform="scale(0.72 0.72) rotate(0) translate(4 458)">
<title>G</title>
<polygon fill="white" stroke="none" points="-4,4 -4,-458 1496,-458 1496,4 -4,4"/>
<g id="clust2" class="cluster"><title>cluster_1</title>
<polygon fill="none" stroke="black" points="8,-8 8,-446 451,-446 451,-8 8,-8"/>
<text text-anchor="middle" x="229.5" y="-430.8" font-family="Times New Roman,serif" font-size="14.00">Similarities</text>
</g>
<g id="clust1" class="cluster"><title>cluster_0</title>
<polygon fill="none" stroke="black" points="459,-224 459,-299 1484,-299 1484,-224 459,-224"/>
<text text-anchor="middle" x="971.5" y="-283.8" font-family="Times New Roman,serif" font-size="14.00">Variability</text>
</g>
<!-- CycleWorkSpace -->
<g id="node1" class="node"><title>CycleWorkSpace</title>
<ellipse fill="none" stroke="#ff0000" stroke-dasharray="1,5" stroke-opacity="0.333333" cx="1009" cy="-250" rx="75.2868" ry="18"/>
<text text-anchor="middle" x="1009" y="-246.3" font-family="Times New Roman,serif" font-size="14.00">CycleWorkSpace</text>
</g>
<!-- Vertex -->
<g id="node12" class="node"><title>Vertex</title>
<ellipse fill="none" stroke="blue" cx="366" cy="-178" rx="34.394" ry="18"/>
<text text-anchor="middle" x="366" y="-174.3" font-family="Times New Roman,serif" font-size="14.00">Vertex</text>
</g>
<!-- CycleWorkSpace&#45;&gt;Vertex -->
<g id="edge1" class="edge"><title>CycleWorkSpace&#45;&gt;Vertex</title>
<path fill="none" stroke="#ff0000" stroke-opacity="0.333333" d="M967.549,-234.794C954.119,-230.697 939.059,-226.628 925,-224 736.125,-188.693 506.248,-181.08 410.835,-179.444"/>
<polygon fill="#ff0000" fill-opacity="0.333333" stroke="#ff0000" stroke-opacity="0.333333" points="410.734,-175.942 400.68,-179.284 410.624,-182.941 410.734,-175.942"/>
</g>
<!-- WorkSpace -->
<g id="node14" class="node"><title>WorkSpace</title>
<ellipse fill="none" stroke="blue" cx="389" cy="-106" rx="53.8905" ry="18"/>
<text text-anchor="middle" x="389" y="-102.3" font-family="Times New Roman,serif" font-size="14.00">WorkSpace</text>
</g>
<!-- CycleWorkSpace&#45;&gt;WorkSpace -->
<g id="edge2" class="edge"><title>CycleWorkSpace&#45;&gt;WorkSpace</title>
<path fill="none" stroke="#ff0000" stroke-opacity="0.333333" d="M965.121,-235.352C952.242,-231.506 938.098,-227.437 925,-224 751.268,-178.415 542.644,-136.502 444.802,-117.586"/>
<polygon fill="#ff0000" fill-opacity="0.333333" stroke="#ff0000" stroke-opacity="0.333333" points="445.319,-114.121 434.837,-115.665 443.994,-120.995 445.319,-114.121"/>
</g>
<!-- Edge -->
<g id="node2" class="node"><title>Edge</title>
<ellipse fill="none" stroke="#ff0000" stroke-dasharray="1,5" stroke-opacity="0.333333" cx="683" cy="-250" rx="29.4969" ry="18"/>
<text text-anchor="middle" x="683" y="-246.3" font-family="Times New Roman,serif" font-size="14.00">Edge</text>
</g>
<!-- EdgeIfc -->
<g id="node3" class="node"><title>EdgeIfc</title>
<ellipse fill="none" stroke="blue" cx="307" cy="-250" rx="39.7935" ry="18"/>
<text text-anchor="middle" x="307" y="-246.3" font-family="Times New Roman,serif" font-size="14.00">EdgeIfc</text>
</g>
<!-- Edge&#45;&gt;EdgeIfc -->
<g id="edge3" class="edge"><title>Edge&#45;&gt;EdgeIfc</title>
<path fill="none" stroke="#ff0000" stroke-opacity="0.333333" d="M674.654,-267.47C666.742,-281.368 653.337,-299.109 635,-303 616.414,-306.944 482.749,-306.079 464,-303 421.99,-296.1 376.087,-279.467 344.828,-266.659"/>
<polygon fill="#ff0000" fill-opacity="0.333333" stroke="#ff0000" stroke-opacity="0.333333" points="345.795,-263.27 335.218,-262.653 343.101,-269.731 345.795,-263.27"/>
</g>
<!-- Neighbor -->
<g id="node9" class="node"><title>Neighbor</title>
<ellipse fill="none" stroke="blue" cx="273" cy="-106" rx="44.393" ry="18"/>
<text text-anchor="middle" x="273" y="-102.3" font-family="Times New Roman,serif" font-size="14.00">Neighbor</text>
</g>
<!-- Edge&#45;&gt;Neighbor -->
<g id="edge4" class="edge"><title>Edge&#45;&gt;Neighbor</title>
<path fill="none" stroke="#ff0000" stroke-opacity="0.333333" d="M664.536,-235.742C658.227,-231.603 650.994,-227.27 644,-224 509.789,-161.249 467.206,-168.848 326,-124 322.869,-123.005 319.634,-121.975 316.379,-120.936"/>
<polygon fill="#ff0000" fill-opacity="0.333333" stroke="#ff0000" stroke-opacity="0.333333" points="317.227,-117.533 306.636,-117.821 315.095,-124.2 317.227,-117.533"/>
</g>
<!-- Edge&#45;&gt;Vertex -->
<g id="edge5" class="edge"><title>Edge&#45;&gt;Vertex</title>
<path fill="none" stroke="#ff0000" stroke-opacity="0.333333" d="M665.183,-235.403C658.802,-231.139 651.362,-226.815 644,-224 602.061,-207.962 477.196,-191.773 409.989,-183.906"/>
<polygon fill="#ff0000" fill-opacity="0.333333" stroke="#ff0000" stroke-opacity="0.333333" points="410.055,-180.39 399.719,-182.716 409.25,-187.343 410.055,-180.39"/>
</g>
<!-- EdgeIfc&#45;&gt;Vertex -->
<g id="edge6" class="edge"><title>EdgeIfc&#45;&gt;Vertex</title>
<path fill="none" stroke="blue" d="M315.404,-232.055C322.178,-222.86 331.702,-211.375 340.734,-201.445"/>
<polygon fill="blue" stroke="blue" points="343.53,-203.58 347.81,-193.888 338.42,-198.795 343.53,-203.58"/>
</g>
<!-- EdgeIter -->
<g id="node4" class="node"><title>EdgeIter</title>
<ellipse fill="none" stroke="blue" cx="169" cy="-106" rx="41.6928" ry="18"/>
<text text-anchor="middle" x="169" y="-102.3" font-family="Times New Roman,serif" font-size="14.00">EdgeIter</text>
</g>
<!-- EdgeIter&#45;&gt;EdgeIfc -->
<g id="edge7" class="edge"><title>EdgeIter&#45;&gt;EdgeIfc</title>
<path fill="none" stroke="blue" d="M184.364,-122.81C208.758,-147.911 256.465,-197.001 284.647,-226"/>
<polygon fill="blue" stroke="blue" points="282.225,-228.529 291.704,-233.261 287.245,-223.65 282.225,-228.529"/>
</g>
<!-- FinishTimeWorkSpace -->
<g id="node5" class="node"><title>FinishTimeWorkSpace</title>
<ellipse fill="none" stroke="#ff0000" stroke-dasharray="1,5" stroke-opacity="0.333333" cx="1197" cy="-250" rx="94.7833" ry="18"/>
<text text-anchor="middle" x="1197" y="-246.3" font-family="Times New Roman,serif" font-size="14.00">FinishTimeWorkSpace</text>
</g>
<!-- FinishTimeWorkSpace&#45;&gt;Vertex -->
<g id="edge8" class="edge"><title>FinishTimeWorkSpace&#45;&gt;Vertex</title>
<path fill="none" stroke="#ff0000" stroke-opacity="0.333333" d="M1145.77,-234.812C1129.07,-230.691 1110.35,-226.603 1093,-224 836.812,-185.579 525.106,-179.832 410.782,-179.07"/>
<polygon fill="#ff0000" fill-opacity="0.333333" stroke="#ff0000" stroke-opacity="0.333333" points="410.68,-175.57 400.66,-179.012 410.64,-182.569 410.68,-175.57"/>
</g>
<!-- FinishTimeWorkSpace&#45;&gt;WorkSpace -->
<g id="edge9" class="edge"><title>FinishTimeWorkSpace&#45;&gt;WorkSpace</title>
<path fill="none" stroke="#ff0000" stroke-opacity="0.333333" d="M1142.07,-235.231C1126.27,-231.424 1108.98,-227.405 1093,-224 940.902,-191.593 902.399,-185.552 749,-160 643.279,-142.39 519.573,-124.843 448.153,-115.011"/>
<polygon fill="#ff0000" fill-opacity="0.333333" stroke="#ff0000" stroke-opacity="0.333333" points="448.387,-111.51 438.004,-113.617 447.435,-118.445 448.387,-111.51"/>
</g>
<!-- GlobalVarsWrapper -->
<g id="node6" class="node"><title>GlobalVarsWrapper</title>
<ellipse fill="none" stroke="#ff0000" stroke-dasharray="1,5" stroke-opacity="0.333333" cx="551" cy="-250" rx="84.485" ry="18"/>
<text text-anchor="middle" x="551" y="-246.3" font-family="Times New Roman,serif" font-size="14.00">GlobalVarsWrapper</text>
</g>
<!-- Graph -->
<g id="node7" class="node"><title>Graph</title>
<ellipse fill="none" stroke="blue" cx="409" cy="-325" rx="33.5952" ry="18"/>
<text text-anchor="middle" x="409" y="-321.3" font-family="Times New Roman,serif" font-size="14.00">Graph</text>
</g>
<!-- Graph&#45;&gt;CycleWorkSpace -->
<g id="edge20" class="edge"><title>Graph&#45;&gt;CycleWorkSpace</title>
<path fill="none" stroke="#ff0000" stroke-opacity="0.333333" d="M442.806,-324.41C542.528,-325.297 834.163,-325.493 925,-299 944.006,-293.457 963.317,-282.843 978.623,-273.002"/>
<polygon fill="#ff0000" fill-opacity="0.333333" stroke="#ff0000" stroke-opacity="0.333333" points="980.749,-275.792 987.14,-267.342 976.875,-269.962 980.749,-275.792"/>
</g>
<!-- Graph&#45;&gt;Edge -->
<g id="edge10" class="edge"><title>Graph&#45;&gt;Edge</title>
<path fill="none" stroke="#ff0000" stroke-opacity="0.333333" d="M442.759,-323.539C499.255,-322.256 610.103,-317.396 644,-299 653.909,-293.622 662.25,-284.581 668.643,-275.786"/>
<polygon fill="#ff0000" fill-opacity="0.333333" stroke="#ff0000" stroke-opacity="0.333333" points="671.723,-277.477 674.372,-267.218 665.904,-273.586 671.723,-277.477"/>
</g>
<!-- Graph&#45;&gt;EdgeIfc -->
<g id="edge11" class="edge"><title>Graph&#45;&gt;EdgeIfc</title>
<path fill="none" stroke="blue" d="M389.333,-309.925C374.15,-299.058 352.916,-283.862 335.816,-271.623"/>
<polygon fill="blue" stroke="blue" points="337.473,-268.505 327.304,-265.532 333.399,-274.198 337.473,-268.505"/>
</g>
<!-- Graph&#45;&gt;EdgeIter -->
<g id="edge12" class="edge"><title>Graph&#45;&gt;EdgeIter</title>
<path fill="none" stroke="#ff0000" stroke-opacity="0.333333" d="M375.056,-323.325C330.082,-321.747 253.977,-316.492 233,-299 183.352,-257.598 172.01,-176.536 169.558,-134.205"/>
<polygon fill="#ff0000" fill-opacity="0.333333" stroke="#ff0000" stroke-opacity="0.333333" points="173.048,-133.914 169.1,-124.082 166.055,-134.23 173.048,-133.914"/>
</g>
<!-- Graph&#45;&gt;FinishTimeWorkSpace -->
<g id="edge18" class="edge"><title>Graph&#45;&gt;FinishTimeWorkSpace</title>
<path fill="none" stroke="#ff0000" stroke-opacity="0.333333" d="M442.881,-323.544C572.057,-321.699 1029.58,-314.15 1093,-299 1116.44,-293.402 1140.99,-282.349 1160.35,-272.26"/>
<polygon fill="#ff0000" fill-opacity="0.333333" stroke="#ff0000" stroke-opacity="0.333333" points="1162.24,-275.217 1169.4,-267.413 1158.94,-269.045 1162.24,-275.217"/>
</g>
<!-- Graph&#45;&gt;Neighbor -->
<g id="edge13" class="edge"><title>Graph&#45;&gt;Neighbor</title>
<path fill="none" stroke="blue" d="M375.323,-323.307C335.497,-321.692 272.737,-316.378 258,-299 218.244,-252.121 243.324,-173.555 260.621,-132.99"/>
<polygon fill="blue" stroke="blue" points="263.855,-134.331 264.7,-123.77 257.453,-131.499 263.855,-134.331"/>
</g>
<!-- NumberWorkSpace -->
<g id="node11" class="node"><title>NumberWorkSpace</title>
<ellipse fill="none" stroke="#ff0000" stroke-dasharray="1,5" stroke-opacity="0.333333" cx="1393" cy="-250" rx="83.3857" ry="18"/>
<text text-anchor="middle" x="1393" y="-246.3" font-family="Times New Roman,serif" font-size="14.00">NumberWorkSpace</text>
</g>
<!-- Graph&#45;&gt;NumberWorkSpace -->
<g id="edge14" class="edge"><title>Graph&#45;&gt;NumberWorkSpace</title>
<path fill="none" stroke="#ff0000" stroke-opacity="0.333333" d="M442.88,-323.951C595.687,-323.606 1216.94,-320.862 1301,-299 1321.74,-293.605 1343.08,-282.858 1359.97,-272.898"/>
<polygon fill="#ff0000" fill-opacity="0.333333" stroke="#ff0000" stroke-opacity="0.333333" points="1362.14,-275.673 1368.87,-267.485 1358.5,-269.693 1362.14,-275.673"/>
</g>
<!-- Graph&#45;&gt;Vertex -->
<g id="edge15" class="edge"><title>Graph&#45;&gt;Vertex</title>
<path fill="none" stroke="blue" d="M403.983,-307.083C396.611,-282.223 382.777,-235.574 373.995,-205.96"/>
<polygon fill="blue" stroke="blue" points="377.317,-204.851 371.118,-196.259 370.606,-206.841 377.317,-204.851"/>
</g>
<!-- VertexIter -->
<g id="node13" class="node"><title>VertexIter</title>
<ellipse fill="none" stroke="blue" cx="63" cy="-106" rx="46.5926" ry="18"/>
<text text-anchor="middle" x="63" y="-102.3" font-family="Times New Roman,serif" font-size="14.00">VertexIter</text>
</g>
<!-- Graph&#45;&gt;VertexIter -->
<g id="edge16" class="edge"><title>Graph&#45;&gt;VertexIter</title>
<path fill="none" stroke="blue" d="M375.189,-324.139C319.897,-323.739 213.251,-320.147 183,-299 126.472,-259.483 153.707,-216.394 114,-160 106.534,-149.396 96.9644,-138.864 88.1361,-130.016"/>
<polygon fill="blue" stroke="blue" points="90.5599,-127.49 80.9569,-123.015 85.6727,-132.502 90.5599,-127.49"/>
</g>
<!-- Graph&#45;&gt;WorkSpace -->
<g id="edge17" class="edge"><title>Graph&#45;&gt;WorkSpace</title>
<path fill="none" stroke="blue" d="M411.033,-306.58C414.103,-276.421 418.605,-212.659 409,-160 407.394,-151.196 404.403,-141.954 401.214,-133.698"/>
<polygon fill="blue" stroke="blue" points="404.351,-132.125 397.306,-124.212 397.879,-134.791 404.351,-132.125"/>
</g>
<!-- WorkSpaceTranspose -->
<g id="node15" class="node"><title>WorkSpaceTranspose</title>
<ellipse fill="none" stroke="#ff0000" stroke-dasharray="1,5" stroke-opacity="0.333333" cx="823" cy="-250" rx="92.8835" ry="18"/>
<text text-anchor="middle" x="823" y="-246.3" font-family="Times New Roman,serif" font-size="14.00">WorkSpaceTranspose</text>
</g>
<!-- Graph&#45;&gt;WorkSpaceTranspose -->
<g id="edge19" class="edge"><title>Graph&#45;&gt;WorkSpaceTranspose</title>
<path fill="none" stroke="#ff0000" stroke-opacity="0.333333" d="M442.571,-322.83C511.999,-320.163 669.207,-312.773 721,-299 743.756,-292.949 767.651,-281.984 786.589,-272.06"/>
<polygon fill="#ff0000" fill-opacity="0.333333" stroke="#ff0000" stroke-opacity="0.333333" points="788.306,-275.111 795.461,-267.298 784.995,-268.943 788.306,-275.111"/>
</g>
<!-- Main -->
<g id="node8" class="node"><title>Main</title>
<ellipse fill="none" stroke="blue" cx="356" cy="-397" rx="28.6953" ry="18"/>
<text text-anchor="middle" x="356" y="-393.3" font-family="Times New Roman,serif" font-size="14.00">Main</text>
</g>
<!-- Main&#45;&gt;Graph -->
<g id="edge21" class="edge"><title>Main&#45;&gt;Graph</title>
<path fill="none" stroke="blue" d="M367.762,-380.465C374.529,-371.528 383.175,-360.109 390.801,-350.037"/>
<polygon fill="blue" stroke="blue" points="393.657,-352.063 396.903,-341.977 388.076,-347.837 393.657,-352.063"/>
</g>
<!-- Main&#45;&gt;Vertex -->
<g id="edge22" class="edge"><title>Main&#45;&gt;Vertex</title>
<path fill="none" stroke="blue" d="M356.785,-378.972C358.511,-341.511 362.651,-251.676 364.744,-206.264"/>
<polygon fill="blue" stroke="blue" points="368.241,-206.399 365.205,-196.249 361.248,-206.077 368.241,-206.399"/>
</g>
<!-- Main&#45;&gt;VertexIter -->
<g id="edge23" class="edge"><title>Main&#45;&gt;VertexIter</title>
<path fill="none" stroke="blue" d="M328.899,-391.011C283.252,-381.254 190.763,-355.469 137,-299 92.2279,-251.975 73.7289,-174.94 66.7647,-134.213"/>
<polygon fill="blue" stroke="blue" points="70.2005,-133.533 65.1636,-124.212 63.2885,-134.64 70.2005,-133.533"/>
</g>
<!-- Neighbor&#45;&gt;Edge -->
<g id="edge24" class="edge"><title>Neighbor&#45;&gt;Edge</title>
<path fill="none" stroke="#ff0000" stroke-opacity="0.333333" d="M305.597,-118.221C312.297,-120.311 319.34,-122.352 326,-124 415.373,-146.111 443.299,-129.026 530,-160 577.468,-176.958 626.921,-208.724 656.327,-229.359"/>
<polygon fill="#ff0000" fill-opacity="0.333333" stroke="#ff0000" stroke-opacity="0.333333" points="654.608,-232.432 664.785,-235.377 658.667,-226.728 654.608,-232.432"/>
</g>
<!-- Neighbor&#45;&gt;EdgeIfc -->
<g id="edge26" class="edge"><title>Neighbor&#45;&gt;EdgeIfc</title>
<path fill="none" stroke="#ff0000" stroke-opacity="0.333333" d="M277.116,-124.189C282.944,-148.531 293.659,-193.28 300.549,-222.059"/>
<polygon fill="#ff0000" fill-opacity="0.333333" stroke="#ff0000" stroke-opacity="0.333333" points="297.166,-222.961 302.899,-231.871 303.974,-221.331 297.166,-222.961"/>
</g>
<!-- NeighborIfc -->
<g id="node10" class="node"><title>NeighborIfc</title>
<ellipse fill="none" stroke="blue" cx="273" cy="-34" rx="54.6905" ry="18"/>
<text text-anchor="middle" x="273" y="-30.3" font-family="Times New Roman,serif" font-size="14.00">NeighborIfc</text>
</g>
<!-- Neighbor&#45;&gt;NeighborIfc -->
<g id="edge27" class="edge"><title>Neighbor&#45;&gt;NeighborIfc</title>
<path fill="none" stroke="#ff0000" stroke-opacity="0.333333" d="M273,-87.6966C273,-79.9827 273,-70.7125 273,-62.1124"/>
<polygon fill="#ff0000" fill-opacity="0.333333" stroke="#ff0000" stroke-opacity="0.333333" points="276.5,-62.1043 273,-52.1043 269.5,-62.1044 276.5,-62.1043"/>
</g>
<!-- Neighbor&#45;&gt;Vertex -->
<g id="edge25" class="edge"><title>Neighbor&#45;&gt;Vertex</title>
<path fill="none" stroke="blue" d="M297.223,-121.066C311.376,-130.749 328.996,-143.813 342.938,-154.88"/>
<polygon fill="blue" stroke="blue" points="341.104,-157.898 351.08,-161.465 345.506,-152.455 341.104,-157.898"/>
</g>
<!-- NumberWorkSpace&#45;&gt;Vertex -->
<g id="edge28" class="edge"><title>NumberWorkSpace&#45;&gt;Vertex</title>
<path fill="none" stroke="#ff0000" stroke-opacity="0.333333" d="M1348.03,-234.685C1333.2,-230.529 1316.53,-226.454 1301,-224 1126.26,-196.389 572.459,-183.194 410.745,-179.866"/>
<polygon fill="#ff0000" fill-opacity="0.333333" stroke="#ff0000" stroke-opacity="0.333333" points="410.738,-176.365 400.669,-179.66 410.595,-183.363 410.738,-176.365"/>
</g>
<!-- NumberWorkSpace&#45;&gt;WorkSpace -->
<g id="edge29" class="edge"><title>NumberWorkSpace&#45;&gt;WorkSpace</title>
<path fill="none" stroke="#ff0000" stroke-opacity="0.333333" d="M1345.99,-235.065C1331.63,-231.125 1315.74,-227.076 1301,-224 985.303,-158.128 599.903,-123.358 451.425,-111.625"/>
<polygon fill="#ff0000" fill-opacity="0.333333" stroke="#ff0000" stroke-opacity="0.333333" points="451.391,-108.112 441.148,-110.82 450.844,-115.09 451.391,-108.112"/>
</g>
<!-- Vertex&#45;&gt;EdgeIfc -->
<g id="edge30" class="edge"><title>Vertex&#45;&gt;EdgeIfc</title>
<path fill="none" stroke="#ff0000" stroke-opacity="0.333333" d="M357.829,-195.628C351.118,-204.771 341.619,-216.249 332.575,-226.215"/>
<polygon fill="#ff0000" fill-opacity="0.333333" stroke="#ff0000" stroke-opacity="0.333333" points="329.748,-224.114 325.481,-233.811 334.864,-228.892 329.748,-224.114"/>
</g>
<!-- Vertex&#45;&gt;EdgeIter -->
<g id="edge31" class="edge"><title>Vertex&#45;&gt;EdgeIter</title>
<path fill="none" stroke="#ff0000" stroke-opacity="0.333333" d="M338.193,-167.119C304.798,-155.253 248.49,-135.245 210.081,-121.597"/>
<polygon fill="#ff0000" fill-opacity="0.333333" stroke="#ff0000" stroke-opacity="0.333333" points="210.836,-118.151 200.242,-118.101 208.493,-124.747 210.836,-118.151"/>
</g>
<!-- Vertex&#45;&gt;GlobalVarsWrapper -->
<g id="edge32" class="edge"><title>Vertex&#45;&gt;GlobalVarsWrapper</title>
<path fill="none" stroke="#ff0000" stroke-opacity="0.333333" d="M393.062,-189.239C421.53,-200.011 466.949,-217.197 501.79,-230.38"/>
<polygon fill="#ff0000" fill-opacity="0.333333" stroke="#ff0000" stroke-opacity="0.333333" points="500.721,-233.718 511.313,-233.983 503.199,-227.171 500.721,-233.718"/>
</g>
<!-- Vertex&#45;&gt;Neighbor -->
<g id="edge33" class="edge"><title>Vertex&#45;&gt;Neighbor</title>
<path fill="none" stroke="blue" d="M343.578,-164.161C329.269,-154.461 310.928,-140.902 296.446,-129.425"/>
<polygon fill="blue" stroke="blue" points="298.406,-126.509 288.425,-122.952 294.01,-131.956 298.406,-126.509"/>
</g>
<!-- Vertex&#45;&gt;VertexIter -->
<g id="edge34" class="edge"><title>Vertex&#45;&gt;VertexIter</title>
<path fill="none" stroke="blue" d="M333.137,-171.985C283.763,-163.382 188.453,-144.725 109,-124 107.114,-123.508 105.197,-122.993 103.267,-122.46"/>
<polygon fill="blue" stroke="blue" points="104.187,-119.083 93.6095,-119.682 102.252,-125.81 104.187,-119.083"/>
</g>
<!-- Vertex&#45;&gt;WorkSpace -->
<g id="edge35" class="edge"><title>Vertex&#45;&gt;WorkSpace</title>
<path fill="none" stroke="blue" d="M365.77,-159.697C367.573,-151.696 370.539,-142.02 373.852,-133.155"/>
<polygon fill="blue" stroke="blue" points="377.202,-134.206 377.695,-123.622 370.709,-131.588 377.202,-134.206"/>
</g>
<!-- VertexIter&#45;&gt;Vertex -->
<g id="edge36" class="edge"><title>VertexIter&#45;&gt;Vertex</title>
<path fill="none" stroke="blue" d="M100.908,-116.575C109.539,-119.139 118.586,-121.805 127,-124 196.061,-142.014 277.101,-158.466 324.973,-168.111"/>
<polygon fill="blue" stroke="blue" points="324.463,-171.578 334.957,-170.122 325.845,-164.716 324.463,-171.578"/>
</g>
<!-- WorkSpace&#45;&gt;Vertex -->
<g id="edge37" class="edge"><title>WorkSpace&#45;&gt;Vertex</title>
<path fill="none" stroke="blue" d="M389.271,-124.124C387.434,-132.325 384.362,-142.317 380.941,-151.397"/>
<polygon fill="blue" stroke="blue" points="377.657,-150.183 377.135,-160.765 384.142,-152.818 377.657,-150.183"/>
</g>
<!-- WorkSpaceTranspose&#45;&gt;Vertex -->
<g id="edge38" class="edge"><title>WorkSpaceTranspose&#45;&gt;Vertex</title>
<path fill="none" stroke="#ff0000" stroke-opacity="0.333333" d="M771.096,-235.063C755.112,-231.1 737.403,-227.04 721,-224 609.962,-203.424 477.626,-189.38 410.221,-182.966"/>
<polygon fill="#ff0000" fill-opacity="0.333333" stroke="#ff0000" stroke-opacity="0.333333" points="410.257,-179.454 399.973,-182.002 409.602,-186.423 410.257,-179.454"/>
</g>
<!-- WorkSpaceTranspose&#45;&gt;WorkSpace -->
<g id="edge39" class="edge"><title>WorkSpaceTranspose&#45;&gt;WorkSpace</title>
<path fill="none" stroke="#ff0000" stroke-opacity="0.333333" d="M783.774,-233.526C736.014,-214.945 652.717,-183.364 580,-160 533.233,-144.974 479.236,-130.226 440.612,-120.119"/>
<polygon fill="#ff0000" fill-opacity="0.333333" stroke="#ff0000" stroke-opacity="0.333333" points="441.201,-116.655 430.642,-117.523 439.438,-123.43 441.201,-116.655"/>
</g>
</g>
</svg>
